<?xml version="1.0" encoding="utf-8"?>
<!-- Generator: Adobe Illustrator 23.1.1, SVG Export Plug-In . SVG Version: 6.00 Build 0)  -->
<svg version="1.1" id="Ebene_1" xmlns="http://www.w3.org/2000/svg" xmlns:xlink="http://www.w3.org/1999/xlink" x="0px" y="0px"
	 viewBox="0 0 512 512" style="enable-background:new 0 0 512 512;" xml:space="preserve">
<style type="text/css">
	.st0{fill-rule:evenodd;clip-rule:evenodd;fill:#FFFFFF;stroke:#161615;stroke-width:0.3959;stroke-miterlimit:22.93;}
	.st1{fill-rule:evenodd;clip-rule:evenodd;fill:#003383;stroke:#161615;stroke-width:0.3959;stroke-miterlimit:22.93;}
	.st2{fill-rule:evenodd;clip-rule:evenodd;fill:#FFFFFF;}
	.st3{fill-rule:evenodd;clip-rule:evenodd;fill:#003383;}
	.st4{fill:#FFFFFF;}
	.st5{fill-rule:evenodd;clip-rule:evenodd;fill:#003383;stroke:#FFFFFF;stroke-width:0.1971;stroke-miterlimit:22.93;}
	.st6{fill:#003383;stroke:#FFFFFF;stroke-width:0.1971;stroke-miterlimit:22.93;}
</style>
<g id="Bildmaterial_1" transform="translate(134.663 95.994)">
	<g id="Gruppe_337" transform="translate(-134.663 -95.994)">
		<g id="Gruppe_335">
			
				<image style="overflow:visible;opacity:0.62;enable-background:new    ;" width="2051" height="1020" id="Rechteck_1885" xlink:href="44EE7D1C0BCCCA2C.png"  transform="matrix(0.2373 0 0 0.2373 12.6635 82.4258)">
			</image>
			<g id="Gruppe_334" transform="translate(2.737 7.609)">
				<path id="Pfad_794" class="st0" d="M124.3,135.1l-32.5-16.8l-77.1,11.4l24.3,22.2L124.3,135.1z"/>
				<path id="Pfad_795" class="st0" d="M102.1,116.8l32.4,16.3l70.7-13.9L169,106.9L102.1,116.8z"/>
				<path id="Pfad_796" class="st0" d="M132.2,139.2l-87.7,17.6l34,31.1l94.8-27.4L132.2,139.2z"/>
				<path id="Pfad_797" class="st0" d="M142.5,137.2l40.8,20.5l72.9-21.1l-41.2-14L142.5,137.2z"/>
				<path id="Pfad_798" class="st0" d="M179.2,105.4l35.9,11.9l55.2-10.9l-38.3-8.7L179.2,105.4z"/>
				<path id="Pfad_799" class="st0" d="M282.2,109.1l-57,11.5l40.5,13.4l55.1-16L282.2,109.1z"/>
				<path id="Pfad_800" class="st0" d="M233.1,191.5l-52.4-27.1l-96.2,29l46.2,42.4L233.1,191.5L233.1,191.5z"/>
				<path id="Pfad_801" class="st1" d="M239.8,195l-103.1,46.2l67.5,61.8L307.3,230L239.8,195z"/>
				<path id="Pfad_802" class="st0" d="M248.9,190.8l66.4,33.5l64.5-45.7l-59-20L248.9,190.8L248.9,190.8z"/>
				<path id="Pfad_803" class="st0" d="M242.3,187.4l72-31.1L264,139.2l-73.3,22.2L242.3,187.4L242.3,187.4z"/>
				<path id="Pfad_804" class="st0" d="M273.3,136.4l49.4,16.3l52-22.5l-46-10.6C328.6,119.6,273.3,136.4,273.3,136.4z"/>
				<path id="Pfad_805" class="st0" d="M380.9,131.6l-51.7,23.3l57.5,18.9l43.5-30.9L380.9,131.6z"/>
				<path id="Pfad_806" class="st0" d="M280,104.5l53.8-10.6l-40-5.3l-51,7.5L280,104.5L280,104.5z"/>
				<path id="Pfad_807" class="st0" d="M348.2,95.8l-56.4,11.4l37,8.4l52.9-15.3L348.2,95.8z"/>
				<path id="Pfad_808" class="st0" d="M389.4,101.3l-52.9,15.9l44.5,10.2l48.1-20.9L389.4,101.3L389.4,101.3z"/>
				<path id="Pfad_809" class="st0" d="M435.2,107.4l-47.9,21.5l47.7,10.8l38.4-27.1L435.2,107.4z"/>
			</g>
		</g>
		<path id="Pfad_810" class="st2" d="M40.4,340.7h406.8v41.1H40.4V340.7z"/>
		<g id="Gruppe_336" transform="translate(15.601 142.656)">
			<path id="Pfad_811" class="st2" d="M25.1,198.1h406.2v41.1H25.1V198.1z"/>
			<path id="Pfad_812" class="st3" d="M25.8,197.7h404.8v40.6H25.8V197.7z"/>
			<path id="Pfad_813" class="st4" d="M34.6,202.1h10.9c1-0.1,2,0,3,0.2c0.4,0.2,0.6,0.5,0.6,0.9l0.2,3l-1.2-0.4h-8.4v9.7h6.5l1-0.2
				v4.1l-1.1-0.2h-6.4v12.4c0,0.5,0,1,0.1,1.5c0.1,0.4,0.3,0.8,0.5,1.1h-5.6c0.2-0.3,0.4-0.7,0.5-1.1c0.1-0.5,0.2-1,0.2-1.5v-25.7
				c0-0.6-0.1-1.2-0.2-1.8c-0.1-0.5-0.3-1-0.5-1.5V202.1z M54.3,202.1h5.8c-0.2,0.5-0.4,1-0.5,1.6c-0.1,0.7-0.2,1.4-0.2,2.1v24.3
				h7.4l2-0.2l1.8-0.6l-0.8,3.6c-0.1,0.3-0.3,0.6-0.6,0.7c-0.4,0.2-0.9,0.2-1.4,0.2h-1.2l-9.6-0.3h-2.8c0.2-0.4,0.4-0.8,0.5-1.3
				c0.1-0.5,0.2-1,0.2-1.5v-24.9c0-0.7-0.1-1.4-0.2-2.1C54.7,203.2,54.6,202.6,54.3,202.1z M75,202.1h6.1c-0.3,0.6-0.5,1.3-0.6,2
				c-0.1,1-0.2,2-0.2,3.1v21.5c0,1,0.1,2.1,0.2,3.1c0.1,0.7,0.3,1.4,0.6,2h-6c0.3-0.6,0.5-1.3,0.6-2c0.1-1,0.2-2,0.2-3.1v-21.4
				c0-1.1-0.1-2.1-0.2-3.2C75.6,203.5,75.4,202.8,75,202.1L75,202.1z M87.7,202.1h12l2.1,0.2c0.3,0.1,0.5,0.4,0.5,0.7l0.2,3.1
				l-1.3-0.5h-8.4v9.9h7l0.9-0.3v4l-1-0.2h-6.9v11.5h7.3l2.2-0.2l1.8-0.6l-0.9,3.3c-0.1,0.3-0.3,0.6-0.6,0.7l-1.5,0.2H87.8
				c0.2-0.4,0.4-0.8,0.5-1.2c0.1-0.5,0.2-1,0.2-1.5v-25.3c0-0.7-0.1-1.4-0.2-2.1c-0.1-0.5-0.3-1.1-0.5-1.6H87.7z M123.2,204.8
				l-0.6,2.2c-0.8-0.6-1.8-1.1-2.8-1.5c-1-0.3-2-0.5-3-0.5c-1.2-0.1-2.4,0.3-3.4,1c-0.8,0.6-1.3,1.6-1.2,2.7c0,1.8,1.9,4.1,5.6,7
				l0.3,0.2c1.9,1.3,3.6,3,4.9,4.8c0.9,1.4,1.3,3,1.3,4.7c0.1,2.4-0.9,4.7-2.7,6.3c-2.1,1.7-4.7,2.5-7.3,2.4c-1.7,0-3.4-0.3-5-0.9
				c-1.5-0.6-2.2-1.4-2.2-2.2l0,0v-3.9c0.9,1,1.9,1.9,3.2,2.5c1.2,0.6,2.5,0.9,3.9,0.9c1.5,0.1,3-0.4,4.3-1.3c1-0.8,1.6-2.1,1.6-3.4
				c0-1.8-1.8-4.1-5.3-7l-2.3-1.9c-1.4-1.1-2.6-2.4-3.6-3.9c-0.7-1.1-1.1-2.4-1.1-3.8c-0.1-2.1,0.8-4.1,2.5-5.4
				c1.9-1.5,4.2-2.2,6.6-2.1c1.5,0,2.9,0.2,4.4,0.6c1.3,0.4,2,0.9,2,1.3c0,0.3-0.1,0.7-0.2,1L123.2,204.8L123.2,204.8z M130.5,202.1
				h12l2.1,0.2c0.3,0.1,0.5,0.4,0.5,0.7l0.2,3.1l-1.3-0.5h-8.4v9.9h7l0.9-0.3v4l-1-0.2h-6.9v11.5h7.3l2.2-0.2l1.8-0.6l-0.9,3.3
				c-0.1,0.3-0.3,0.6-0.6,0.7l-1.5,0.2h-13.3c0.2-0.4,0.4-0.8,0.5-1.2c0.1-0.5,0.2-1,0.2-1.5v-25.3c0-0.7-0.1-1.4-0.2-2.1
				C131,203.2,130.9,202.6,130.5,202.1L130.5,202.1z M151.5,233.7c0.3-0.6,0.5-1.3,0.6-2c0.1-1,0.2-2,0.2-3.1v-21.4
				c0-1.1,0-2.3-0.2-3.4c-0.1-0.7-0.4-1.3-0.8-1.8h5.4l16.7,25v-19.9c0-1-0.1-2-0.2-3c-0.1-0.7-0.3-1.4-0.6-2.1h5.5
				c-0.3,0.6-0.5,1.2-0.6,1.9c-0.1,1-0.2,2.1-0.2,3.2v23.2c0,0.5,0,1.1,0.1,1.6c0,0.6,0.1,1.1,0.2,1.7h-4.2l-17-25.4v20.5
				c0,1,0.1,2,0.2,3c0.1,0.7,0.3,1.4,0.6,2.1L151.5,233.7z M181.6,202.1h5.9v0.4c0,0.3,0,0.7,0.1,1c0.1,0.4,0.3,0.9,0.5,1.3
				l8.8,21.4l8.9-21.5c0.2-0.3,0.3-0.7,0.4-1.1c0.1-0.3,0.1-0.6,0.1-0.9v-0.3c0-0.1,0-0.2,0-0.3h6c-0.5,0.6-0.9,1.2-1.2,1.8
				c-0.4,0.8-1,1.9-1.7,3.4l-12.3,26.9h-0.9l-11.8-27l-1.5-3.2c-0.3-0.7-0.7-1.3-1.2-1.9L181.6,202.1z M215.4,202.1h12l2.1,0.2
				c0.3,0.1,0.5,0.4,0.5,0.7l0.2,3.1l-1.3-0.5h-8.4v9.9h7l0.9-0.3v4l-1-0.2h-6.9v11.5h7.3l2.2-0.2l1.8-0.6l-0.9,3.3
				c-0.1,0.3-0.3,0.6-0.6,0.7l-1.5,0.2h-13.3c0.2-0.4,0.4-0.8,0.5-1.2c0.1-0.5,0.2-1,0.2-1.5v-25.3c0-0.7-0.1-1.4-0.2-2.1
				C215.8,203.2,215.7,202.6,215.4,202.1L215.4,202.1z M250.8,219.2l4.3,7.8c0.6,1.1,1.3,2.1,2.2,3.1c0.8,0.8,1.7,1.6,2.7,2.2
				l-2.8,1.2l-1.5,0.3c-0.6,0-1.1-0.2-1.5-0.6c-0.6-0.6-1-1.2-1.4-2l-5.9-11l-1.8,0.3h-4v7.9c0,1,0.1,2,0.2,3
				c0.1,0.7,0.3,1.4,0.6,2.1h-5.7c0.3-0.6,0.5-1.3,0.6-2c0.1-1,0.2-2,0.2-3.1v-21.3c0-1.1-0.1-2.1-0.2-3.2c-0.1-0.7-0.3-1.3-0.6-1.9
				h8.1c2.9-0.2,5.7,0.6,8,2.3c1.9,1.7,2.9,4.2,2.8,6.7c0,1.6-0.4,3.2-1.2,4.7c-0.8,1.4-1.9,2.6-3.3,3.5L250.8,219.2z M241.3,217.3
				h1.7c2.1,0.1,4.2-0.4,6-1.6c1.4-1.1,2.2-2.9,2.1-4.7c0.1-1.6-0.5-3.2-1.8-4.3c-1.5-1.1-3.3-1.6-5.1-1.5l-2.6,0.2h-0.1v11.6
				L241.3,217.3z M263.6,202.2h5.8c-0.2,0.5-0.4,1-0.5,1.6c-0.1,0.7-0.2,1.4-0.2,2.1v24.3h7.4l2-0.2l1.8-0.6l-0.8,3.6
				c-0.1,0.3-0.3,0.6-0.6,0.7c-0.4,0.2-0.9,0.2-1.4,0.2h-1.3l-9.6-0.3h-2.7c0.2-0.4,0.4-0.8,0.5-1.3c0.1-0.5,0.2-1,0.2-1.5v-25
				c0-0.7-0.1-1.4-0.2-2.1C263.9,203.2,263.8,202.6,263.6,202.2L263.6,202.2z M284.5,202.2h12l2.1,0.2c0.3,0.1,0.5,0.4,0.5,0.7
				l0.2,3.1l-1.3-0.5h-8.4v9.9h7l0.9-0.3v4l-1-0.2h-6.9v11.4h7.3l2.2-0.2l1.8-0.6l-0.9,3.3c-0.1,0.3-0.3,0.6-0.6,0.7
				c-0.5,0.2-1,0.2-1.5,0.2h-13.3c0.2-0.4,0.4-0.8,0.5-1.2c0.1-0.5,0.2-1,0.2-1.5v-25.3c0-0.7-0.1-1.4-0.2-2.1
				C285,203.2,284.9,202.6,284.5,202.2L284.5,202.2z M328.3,204.7l-1.1,3.4c-0.9-0.9-2-1.6-3.3-2c-1.4-0.5-2.9-0.7-4.4-0.7
				c-3-0.2-5.9,1-7.9,3.3c-2.1,2.6-3.1,5.9-2.9,9.2c-0.2,3.3,0.8,6.7,2.9,9.3c1.9,2.3,4.8,3.5,7.7,3.4c1,0,1.9-0.1,2.9-0.3
				c0.8-0.1,1.5-0.4,2.2-0.8v-7.5c0-0.6-0.1-1.2-0.2-1.8c-0.1-0.5-0.3-1-0.5-1.5h5.5c-0.3,0.5-0.5,1-0.6,1.5
				c-0.1,0.6-0.2,1.2-0.2,1.9v10.1c-1.3,0.7-2.7,1.3-4.2,1.6c-1.6,0.4-3.3,0.6-4.9,0.6c-4.1,0.2-8.2-1.4-11-4.5
				c-2.8-3.3-4.3-7.6-4.1-12c-0.3-4.3,1.2-8.6,4.1-11.9c3.1-3,7.2-4.5,11.5-4.3c1.9,0,3.9,0.3,5.7,0.9c1.8,0.6,2.7,1.1,2.7,1.7
				L328.3,204.7L328.3,204.7z M336.7,202.2h5.9c-1,2.9-1.7,6-2.2,9c-0.5,2.9-0.8,5.9-0.8,8.9c-0.2,2.8,0.5,5.6,2,8
				c1.6,1.8,4,2.8,6.4,2.5c1.5,0,3-0.2,4.5-0.7c1.3-0.4,2.5-1,3.6-1.9v-20.8c0-1.1-0.1-2.1-0.2-3.2c-0.1-0.7-0.3-1.3-0.6-2h5.9
				c-0.3,0.6-0.5,1.2-0.6,1.9c-0.1,1-0.2,2.1-0.2,3.2v20.6c0,1,0.1,1.9,0.4,2.9c0.3,0.8,0.7,1.4,1.3,2l-4.4,1.5l-0.8-1
				c-0.3-0.4-0.5-0.8-0.6-1.3c-1.4,0.8-3,1.4-4.6,1.8c-1.6,0.4-3.2,0.6-4.8,0.6c-3.4,0.3-6.7-1-9.1-3.4c-2-2.2-3-5.7-3-10.4
				c0-3.2,0.3-6.4,0.8-9.6c0.4-2.4,0.7-4.7,0.8-7.1v-1.6L336.7,202.2z M368,233.8c0.3-0.6,0.5-1.3,0.6-2c0.1-1,0.2-2,0.2-3.1v-21.5
				c0-1.1,0-2.3-0.2-3.4c-0.1-0.7-0.4-1.3-0.8-1.8h5.3l16.7,25v-19.9c0-1-0.1-2-0.2-3c-0.1-0.7-0.3-1.4-0.6-2.1h5.5
				c-0.3,0.6-0.5,1.2-0.6,1.9c-0.1,1-0.2,2.1-0.2,3.2v23.2c0,0.5,0,1.1,0.1,1.6c0,0.6,0.1,1.1,0.2,1.7H390l-17-25.4v20.5
				c0,1,0.1,2,0.2,3c0.1,0.7,0.3,1.4,0.6,2.1L368,233.8z M424.2,204.7l-1.1,3.4c-0.9-0.9-2-1.6-3.3-2c-1.4-0.5-2.9-0.7-4.4-0.7
				c-3-0.2-5.9,1-7.9,3.3c-2.1,2.6-3.1,5.9-2.9,9.2c-0.2,3.3,0.8,6.7,2.9,9.3c1.9,2.3,4.8,3.5,7.7,3.4c1,0,1.9-0.1,2.9-0.3
				c0.8-0.1,1.5-0.4,2.2-0.8v-7.5c0-0.6-0.1-1.2-0.2-1.8c-0.1-0.5-0.3-1-0.5-1.5h5.5c-0.3,0.5-0.5,1-0.6,1.5
				c-0.1,0.6-0.2,1.2-0.2,1.9v10.1c-1.3,0.7-2.7,1.3-4.2,1.6c-1.6,0.4-3.3,0.6-4.9,0.6c-4.1,0.2-8.2-1.4-11-4.5
				c-2.8-3.3-4.3-7.6-4.1-12c-0.3-4.3,1.2-8.6,4.1-11.9c3.1-3,7.2-4.5,11.5-4.3c1.9,0,3.9,0.3,5.7,0.9c1.8,0.6,2.7,1.1,2.7,1.7
				L424.2,204.7L424.2,204.7z"/>
		</g>
		<path id="Pfad_814" class="st5" d="M288.8,393.4h4v-0.6c-0.2-3,0.7-5.9,2.5-8.3c4.4-3.5,10.6-3.6,15-0.2c1.8,1.8,2.8,4.3,2.7,6.8
			c0.1,1.6-0.3,3.2-1.1,4.6c-0.3,0.5-0.7,0.9-1.1,1.3c1,0.5,1.8,1.2,2.5,2.1c1.1,2.1,1.6,4.4,1.5,6.7v11.2c0.2,3-0.5,6.1-2.1,8.7
			c-1.5,2.1-4,3.3-6.6,3.2c-0.9,0-1.7-0.1-2.6-0.4l-2.1-0.8v0.8h-8.7v-26.8h-3.8v26.9h-8.8v-35.1H288.8z M301.4,420l0.8,0.5l1,0.5
			h0.5c0.6,0,1.3-0.2,1.7-0.7c0.5-0.7,0.7-1.6,0.6-2.5v-13.2c0.1-0.9-0.1-1.8-0.6-2.6c-0.6-0.4-1.3-0.6-2-0.6h-2.1L301.4,420
			L301.4,420z M301.4,393.4h2c0.3,0,0.6-0.1,0.8-0.4c0.3-0.4,0.4-0.8,0.4-1.3c0-0.6-0.1-1.1-0.5-1.6c-0.6-0.6-1.6-0.6-2.3-0.1
			c-0.3,0.4-0.4,1-0.4,1.5V393.4L301.4,393.4z M39.6,415.8v-22.6c-0.2-3.3,1-6.6,3.2-9.1c2.3-2.3,5.5-3.5,8.8-3.4
			c3.2-0.1,6.2,1.1,8.4,3.5c2.2,2.6,3.2,5.9,3.1,9.2v5.5h-9.5v-6.1c0.1-0.9-0.2-1.8-0.6-2.6c-0.9-0.9-2.3-0.9-3.2,0
			c-0.4,0.8-0.6,1.7-0.6,2.6v24.6c-0.1,0.9,0.1,1.9,0.6,2.7c0.9,0.9,2.3,0.9,3.2,0c0.5-0.8,0.7-1.7,0.6-2.7v-7.3h9.6v5.9
			c0.2,3.5-0.9,7-3.1,9.8c-2.3,2.4-5.5,3.8-8.8,3.6c-3.3,0.2-6.5-1.1-8.8-3.6c-2.1-2.9-3.2-6.4-3-10L39.6,415.8z M74.5,395.1l1.5-1
			c1.3-0.8,2.7-1.2,4.2-1.2c1.7-0.1,3.2,0.7,4.3,2c0.9,1.5,1.4,3.3,1.3,5v28.6H77v-25.8c0-0.4,0-0.8-0.1-1.2h-0.2
			c-0.3,0.1-0.6,0.3-0.9,0.5l-1.3,1.2v25.3h-8.8v-46.7h8.8v13.4L74.5,395.1z M97.6,395l0.7-0.6c1.3-1,2.8-1.5,4.5-1.5h2v10.3l-1.9-1
			l-0.6-0.2h-0.8c-1-0.1-2,0.3-2.8,1c-0.7,0.8-1.1,1.9-1,3v22.6h-8.9v-35.1h8.8L97.6,395L97.6,395z M105.3,390.4v-8.7h8.8v8.7H105.3
			z M105.3,428.4v-35h8.8v35.1L105.3,428.4z M115.1,417.2l8.4-1.9l0.2,1.4c0.1,1.2,0.5,2.4,1.1,3.5c0.4,0.5,1,0.7,1.6,0.7
			c0.4,0,0.8-0.1,1.1-0.4c0.3-0.3,0.4-0.8,0.4-1.2c0-1.8-4.4-5.1-5.6-6.1H122c-1.9-1.3-3.5-3-4.8-4.9c-1-1.7-1.5-3.7-1.5-5.6
			c-0.1-2.8,0.9-5.5,2.9-7.4c2-1.9,4.7-2.9,7.4-2.8c2.6-0.1,5.1,0.9,7,2.7c1.8,1.9,2.9,4.4,3,7v1.1l-8.2,2l-0.2-1.4
			c-0.1-0.9-0.4-1.7-0.9-2.5c-0.3-0.3-0.7-0.5-1.1-0.5c-0.4-0.1-0.7,0.1-1,0.3c-0.3,0.3-0.4,0.8-0.4,1.2c0,1.4,2.9,3.8,3.9,4.5
			l1.8,1.5c1.9,1.5,3.6,3.3,4.9,5.3c1,1.7,1.4,3.6,1.4,5.5c0.1,2.8-0.9,5.5-2.9,7.4c-2,1.9-4.7,2.9-7.5,2.8c-2.8,0.1-5.5-1-7.4-3
			c-2-2.2-3.3-5-3.6-7.9l-0.2-1.2L115.1,417.2z M139.8,400.9H136v-7.7h3.8V384h8.7v9.4h4.6v7.7h-4.5v18.7c0,0.4,0.1,0.8,0.3,1.2
			c0.3,0.2,0.7,0.3,1.1,0.3h0.5l1-0.2l1.6-0.4v7.9l-0.9,0.3l-1.9,0.5h-2c-2.3,0.1-4.6-0.7-6.2-2.4c-1.5-1.9-2.2-4.3-2.1-6.7V401
			L139.8,400.9z M154.8,390.3v-8.7h8.8v8.7H154.8z M154.8,428.3v-34.9h8.8v35.1L154.8,428.3z M177.7,426.3l-1.6,1.1
			c-1.3,0.8-2.7,1.3-4.3,1.3c-1.9,0.1-3.8-0.8-4.9-2.4c-1.2-1.8-1.8-4-1.7-6.1c-0.1-3.1,0.9-6.1,2.9-8.5c2.6-2.8,5.7-5.1,9.1-6.7
			v-2.8c0-0.5-0.1-1-0.3-1.5c-0.1-0.1-0.2-0.2-0.4-0.2c-0.6-0.2-1.2,0.2-1.4,0.8c0,0.2,0,0.4,0,0.6v3.2h-8.8v-1.3c0-0.2,0-0.4,0-0.6
			c-0.1-2.8,1-5.6,3-7.6c2-2,4.6-3,7.4-3c2.7-0.2,5.3,0.9,7.1,3c1.7,2.5,2.5,5.5,2.3,8.5v13.9c0,1.9,0,3.8,0.2,5.6
			c0,1.1,0.2,2.3,0.4,3.4l0.4,1.6h-8.7l-0.3-0.9l-0.3-1.1L177.7,426.3z M177.2,418.5V413c-0.8,0.6-1.5,1.3-2.1,2.1
			c-0.7,1.1-1,2.4-1,3.7c0,0.6,0.1,1.2,0.3,1.7l0.2,0.2c0.5,0,0.9-0.2,1.3-0.5C176.4,419.7,176.8,419.2,177.2,418.5L177.2,418.5z
			 M197.8,394.9l1.5-1c1.3-0.8,2.7-1.2,4.2-1.2c1.7-0.1,3.2,0.7,4.3,2c0.9,1.5,1.4,3.3,1.3,5v28.8h-8.7v-25.8c0-0.4,0-0.8-0.1-1.2
			H200c-0.3,0.1-0.6,0.3-0.9,0.5l-1.3,1.2v25.3H189v-35.1h8.8L197.8,394.9L197.8,394.9z M233.5,401.8l2.7-20.3h8.1l2.9,20.5
			l2.3-20.5h9.1l-7.2,47h-8l-3.1-20.8l-3,20.8h-7.9l-7.3-46.7h9.2l2.4,20.3L233.5,401.8z M266.3,412.8v4.8c-0.1,1,0.1,1.9,0.4,2.9
			c0.2,0.3,0.5,0.4,0.9,0.4c0.3,0,0.8,0,1-0.3c0.3-1,0.4-2,0.4-3v-3.6h8.9v3.8c0.2,3-0.7,6-2.6,8.4c-2,2.1-4.8,3.2-7.7,3
			c-2.8,0.1-5.6-1-7.4-3.2c-1.9-2.3-2.8-5.2-2.7-8.2v-14.4c-0.1-2.9,1-5.7,3-7.8c2-2.1,4.8-3.2,7.6-3.1c2.7-0.1,5.4,0.9,7.3,2.9
			c1.8,2.3,2.7,5.1,2.6,8v9.6L266.3,412.8z M266.3,405.1h2.7v-2c0-0.7-0.1-1.5-0.4-2.2c-0.2-0.2-0.6-0.3-0.9-0.3
			c-0.4-0.1-0.7,0.1-1,0.3c-0.3,0.7-0.4,1.4-0.4,2.2L266.3,405.1z M280.2,390.2v-8.7h8.8v8.7H280.2z M325.6,412.8v4.8
			c-0.1,1,0.1,1.9,0.4,2.9c0.2,0.3,0.5,0.4,0.9,0.4c0.3,0,0.8,0,1-0.3c0.3-1,0.4-2,0.4-3v-3.6h8.9v3.8c0.2,3-0.7,6-2.6,8.4
			c-2,2.1-4.8,3.2-7.7,3c-2.8,0.1-5.6-1-7.4-3.2c-1.9-2.3-2.8-5.2-2.7-8.2v-14.4c-0.1-2.9,1-5.7,3-7.8c2-2.1,4.8-3.2,7.6-3.1
			c2.7-0.1,5.4,0.9,7.3,2.9c1.8,2.3,2.7,5.1,2.6,8v9.6L325.6,412.8z M325.6,405.1h2.7v-2c0-0.7-0.1-1.5-0.4-2.2
			c-0.2-0.2-0.6-0.3-0.9-0.3c-0.4-0.1-0.7,0.1-1,0.3c-0.3,0.7-0.4,1.4-0.4,2.2L325.6,405.1z M348.3,394.9l1.5-1
			c1.3-0.8,2.7-1.2,4.2-1.2c1.7-0.1,3.2,0.7,4.3,2c0.9,1.5,1.4,3.3,1.3,5v28.8h-8.7v-25.8c0-0.4,0-0.8-0.1-1.2h-0.2
			c-0.3,0.1-0.6,0.3-0.9,0.5l-1.3,1.2v25.3h-8.8v-35.1h8.8L348.3,394.9L348.3,394.9z M371.4,394l0.6-0.4c1-0.6,2.2-1,3.5-1
			c2.1-0.1,4.2,0.9,5.4,2.7c1.3,2,1.9,4.4,1.8,6.8v18.1c0.1,2.2-0.5,4.3-1.7,6.1c-1.2,1.6-3.1,2.5-5.1,2.4c-1.3,0-2.6-0.3-3.8-0.9
			l-0.7-0.4v0.8h-8.8v-46.4h8.8L371.4,394L371.4,394z M371.4,420.2l0.7,0.5l0.9,0.2c0.2,0,0.5,0,0.6-0.2c0.2-0.5,0.3-1,0.3-1.5
			v-16.4c0-0.6-0.1-1.2-0.4-1.7c-0.2-0.2-0.5-0.3-0.8-0.3L372,401l-0.5,0.4v19.2L371.4,420.2z M393.5,392.3h-6.9v-8.8h8.2v8.7h0.1
			v-8.7h8.2v8.8h-6.7c5,0.5,8.7,4.7,8.5,9.7v16.8c0.1,2.8-0.9,5.5-2.8,7.5c-2,1.9-4.7,2.9-7.4,2.8c-2.7,0.1-5.4-0.9-7.3-2.9
			c-1.9-2-2.9-4.7-2.8-7.5v-16.8c-0.1-2.6,0.9-5.2,2.9-7C389.1,393.4,391.2,392.5,393.5,392.3L393.5,392.3z M393.6,419.3
			c0,0.4,0.1,0.8,0.3,1.2c0.2,0.2,0.5,0.3,0.8,0.3c0.4,0,0.7-0.1,1-0.3c0.3-0.3,0.4-0.8,0.4-1.2v-17.4c0-0.3-0.1-0.5-0.3-0.7
			c-0.3-0.2-0.7-0.3-1.1-0.3c-0.3,0-0.6,0.1-0.9,0.3c-0.2,0.2-0.3,0.5-0.3,0.8v17.6L393.6,419.3z M406.8,417.7v-14.1
			c-0.1-2.9,0.9-5.8,2.9-8c2-2,4.7-3.2,7.5-3.1c2.8-0.1,5.4,1,7.3,3c1.9,2.2,2.8,5,2.7,7.9v3.9h-8.9v-4c0-0.7-0.1-1.5-0.4-2.2
			c-0.2-0.2-0.6-0.3-0.9-0.3c-0.4-0.1-0.7,0.1-1,0.3c-0.3,0.7-0.4,1.4-0.4,2.2v14.4c-0.1,1,0.1,1.9,0.4,2.9c0.2,0.3,0.5,0.4,0.9,0.4
			c0.3,0,0.8,0,1-0.3c0.3-1,0.4-2,0.4-3v-3.9h8.9v4c0.2,3-0.7,6-2.6,8.4c-2,2.1-4.8,3.2-7.7,3c-2.8,0.1-5.5-1.1-7.3-3.2
			c-1.9-2.3-2.8-5.2-2.7-8.2L406.8,417.7z M438.4,400.3l3.4-7.3h9.6l-6.8,12.8l6.8,22.8h-8.9l-3.7-13.9l-0.3,0.6v13.3h-8.8v-46.7
			h8.8v18.8L438.4,400.3z"/>
		<path id="Pfad_815" class="st6" d="M40.8,415.8v-22.6c-0.2-3,0.9-6,2.9-8.2c2.1-2,4.9-3.1,7.8-3c2.8-0.1,5.6,1,7.5,3.1
			c1.9,2.3,2.9,5.3,2.8,8.3v4.3h-7v-4.8c0.1-1.2-0.2-2.4-0.9-3.5c-1.3-1.4-3.6-1.5-5-0.2c-0.1,0.1-0.1,0.1-0.2,0.2
			c-0.7,1-1,2.2-0.9,3.5v24.6c-0.1,1.2,0.2,2.4,0.9,3.5c1.3,1.4,3.6,1.5,5,0.2c0.1-0.1,0.1-0.1,0.2-0.2c0.7-1,1-2.2,0.9-3.5v-6h7
			v4.7c0.2,3.2-0.8,6.4-2.8,8.9c-2,2.1-4.8,3.3-7.7,3.2c-2.9,0.2-5.8-0.9-7.8-3.1c-2-2.6-2.9-5.8-2.7-9.1V415.8z M67.1,427.2v-44.1
			h6.1v15.1c1-1.2,2.1-2.2,3.5-3c1-0.6,2.2-1,3.5-1c1.2-0.1,2.4,0.5,3.2,1.5c0.8,1.3,1.2,2.8,1.1,4.3v27.2h-6.1v-24.5
			c0.1-0.7-0.1-1.4-0.4-2.1c-0.3-0.4-0.8-0.6-1.3-0.5c-0.6,0.1-1.2,0.3-1.7,0.7c-0.7,0.5-1.3,1.1-1.9,1.8v24.6L67.1,427.2z
			 M90.1,427.2v-32.6h6.1v4.5c0.6-1.4,1.6-2.6,2.8-3.6c1.1-0.8,2.3-1.2,3.7-1.2h0.6v6.8l-0.9-0.3h-1.1c-1.4-0.1-2.8,0.4-3.8,1.4
			c-1,1-1.5,2.4-1.4,3.9v21.3L90.1,427.2z M106.6,389.2v-6h6.1v6H106.6z M106.6,427.2v-32.6h6.1v32.6H106.6z M116.5,418.4l5.8-1.3
			c0.1,1.4,0.6,2.8,1.4,4.1c0.6,0.8,1.6,1.3,2.7,1.3c1.5,0.1,2.8-1,2.9-2.5c0-0.1,0-0.2,0-0.3c0-1.7-2-4.1-6.1-7.2h-0.2
			c-1.7-1.2-3.2-2.8-4.4-4.6c-0.9-1.5-1.3-3.2-1.3-4.9c-0.1-2.4,0.8-4.7,2.5-6.4c1.7-1.7,4-2.6,6.4-2.5c2.2-0.1,4.4,0.7,6,2.3
			c1.6,1.7,2.5,3.9,2.6,6.2l-5.7,1.4c-0.1-1.1-0.5-2.2-1.1-3.1c-0.5-0.6-1.3-1-2.1-1c-0.7,0-1.4,0.3-1.9,0.8
			c-0.5,0.6-0.7,1.3-0.7,2.1c0,1.4,1.5,3.3,4.4,5.5l1.8,1.5c1.8,1.4,3.4,3.1,4.7,4.9c0.9,1.5,1.3,3.1,1.3,4.8
			c0.1,2.4-0.8,4.7-2.5,6.4c-1.8,1.7-4.1,2.6-6.5,2.5c-2.4,0.1-4.7-0.9-6.4-2.6c-1.8-2-2.9-4.5-3.2-7.1L116.5,418.4z M141.1,420.4
			v-20.7h-3.8v-5h3.8v-9.4h6v9.4h4.6v5h-4.6v20.1c-0.1,0.8,0.2,1.5,0.7,2.1c0.5,0.5,1.3,0.7,2,0.7h0.8l1.1-0.2v5.3l-1.7,0.4h-1.8
			c-2,0.1-3.9-0.6-5.2-2c-1.3-1.7-1.9-3.7-1.8-5.8L141.1,420.4z M156,389.2v-6h6.1v6L156,389.2z M156,427.2v-32.6h6.1v32.6H156z
			 M178.4,419.1v-8.4c-1.7,1-3.2,2.3-4.5,3.9c-0.8,1.3-1.2,2.8-1.2,4.4c0,0.8,0.1,1.6,0.5,2.4c0.3,0.5,0.8,0.8,1.4,0.8
			c0.8,0,1.5-0.3,2.1-0.8C177.5,420.7,178,420,178.4,419.1L178.4,419.1z M178.6,423.6c-0.9,1.2-1.9,2.2-3.2,3
			c-1.1,0.7-2.3,1.1-3.6,1.1c-1.6,0.1-3-0.6-4-1.9c-1-1.6-1.5-3.5-1.4-5.3c-0.1-2.8,0.8-5.5,2.6-7.7c2.7-2.8,5.9-5.2,9.4-6.8v-3.5
			c0.1-0.8-0.1-1.6-0.5-2.3c-0.3-0.5-0.9-0.8-1.5-0.8c-1.4-0.1-2.7,0.9-2.8,2.4c0,0.1,0,0.3,0,0.4v1.8h-6.1c0-0.1,0-0.3,0-0.4
			c0-0.1,0-0.3,0-0.4c-0.1-2.5,0.8-4.9,2.6-6.7c1.7-1.8,4.1-2.7,6.5-2.7c2.3-0.2,4.6,0.8,6.1,2.5c1.6,2.3,2.3,5,2,7.7v13.8
			c0,2.2,0.1,4.1,0.2,5.7c0,1.2,0.2,2.4,0.4,3.6h-6c-0.2-0.5-0.3-1-0.4-1.5c-0.1-0.7-0.2-1.4-0.2-2.2L178.6,423.6z M190.2,427.2
			v-32.6h6.1v3.6c1-1.2,2.1-2.2,3.5-3c1-0.6,2.2-1,3.5-1c1.2-0.1,2.4,0.5,3.2,1.5c0.8,1.3,1.2,2.8,1.1,4.3v27.2h-6v-24.6
			c0.1-0.7-0.1-1.4-0.4-2.1c-0.3-0.4-0.8-0.6-1.3-0.5c-0.6,0.1-1.2,0.3-1.7,0.7c-0.7,0.5-1.3,1.1-1.9,1.8v24.6L190.2,427.2z
			 M223.3,383.1h6.5l3.1,26.1c0.1,1.3,0.3,2.6,0.3,3.7c0,1.1,0.1,2.2,0.1,3.3v0.9c0-0.6,0.1-1.4,0.1-2.4c0.2-3.5,0.3-5.6,0.4-6.2
			l3.4-25.2h5.8l3.7,26.1c0.2,1.1,0.3,2.3,0.3,3.5c0,1.3,0.1,2.8,0.1,4.4c0-0.3,0-0.7,0.1-1.3c0.2-3.7,0.3-6.1,0.5-7.4l2.8-25.2h6.6
			l-6.9,44h-5.7l-3.8-25.6c-0.2-1.1-0.3-2.3-0.3-3.5c0-1.3-0.1-2.8-0.1-4.4c-0.1,2.4-0.2,4.4-0.3,5.7c-0.1,1.4-0.2,2.4-0.2,2.9
			l-3.7,24.7h-5.6l-6.9-44.1L223.3,383.1z M265,406.6h5.3v-3.3c0.1-1-0.1-2.1-0.6-3c-0.5-0.6-1.2-0.9-2-0.9
			c-0.8-0.1-1.6,0.3-2.1,0.9c-0.5,0.9-0.7,1.9-0.6,3L265,406.6L265,406.6z M258.8,418v-14.6c-0.1-2.6,0.8-5.1,2.6-6.9
			c1.7-1.8,4.1-2.8,6.6-2.7c2.4-0.1,4.7,0.8,6.3,2.5c1.6,2,2.4,4.6,2.3,7.1v8.3H265v6.1c-0.1,1.2,0.1,2.4,0.6,3.6
			c0.4,0.7,1.3,1.1,2.1,1c0.8,0.1,1.6-0.3,2.1-0.9c0.5-1.1,0.7-2.4,0.6-3.7v-2.3h6.2v2.5c0.2,2.7-0.6,5.4-2.3,7.5
			c-1.8,1.8-4.3,2.7-6.8,2.6c-2.4,0.1-4.8-0.8-6.4-2.7C259.4,423.4,258.5,420.7,258.8,418L258.8,418z M281.6,389.1v-6h6.1v6H281.6z
			 M281.6,427.1v-32.5h6.1v32.6L281.6,427.1z M290.2,400.2v-5.6h4c0-0.5,0-1.1-0.1-1.6v-0.3c-0.2-2.7,0.5-5.3,2.2-7.4
			c1.9-1.7,4.4-2.5,6.9-2.3c2.3-0.2,4.6,0.6,6.3,2.1c1.6,1.5,2.4,3.7,2.3,5.8c0.1,1.3-0.2,2.7-0.9,3.9c-0.7,1.1-1.7,1.9-2.9,2.4
			c1.7,0.2,3.3,1.1,4.4,2.5c1,1.8,1.5,3.9,1.3,6v11.2c0.2,2.8-0.4,5.6-1.8,8c-1.2,1.8-3.4,2.8-5.5,2.7c-0.8,0-1.5-0.1-2.3-0.3
			c-0.8-0.2-1.6-0.6-2.3-1v-4.7l1.2,0.6l0.9,0.2c1,0.1,2-0.3,2.7-1.1c0.7-1,1-2.1,0.9-3.3v-13.4c0.1-1.2-0.2-2.4-0.9-3.4
			c-0.8-0.7-1.9-1.1-3-1h-2v-5.6h1.8c0.7,0,1.4-0.3,1.8-0.9c0.5-0.6,0.7-1.3,0.7-2.1c0.1-0.9-0.2-1.8-0.8-2.5
			c-1.2-1.1-3-1.2-4.3-0.1c-0.5,0.7-0.8,1.5-0.7,2.4v35.6h-6v-26.8L290.2,400.2z M324.4,406.5h5.3v-3.3c0.1-1-0.1-2.1-0.6-3
			c-0.5-0.6-1.2-0.9-2-0.9c-0.8-0.1-1.6,0.3-2.1,0.9c-0.5,0.9-0.7,1.9-0.6,3L324.4,406.5L324.4,406.5z M318.1,417.9v-14.5
			c-0.1-2.6,0.8-5.1,2.6-6.9c1.7-1.8,4.1-2.8,6.6-2.7c2.4-0.1,4.7,0.8,6.3,2.5c1.6,2,2.4,4.6,2.3,7.1v8.3h-11.7v6.1
			c-0.1,1.2,0.1,2.4,0.6,3.6c0.4,0.7,1.3,1.1,2.1,1c0.8,0.1,1.6-0.3,2.1-0.9c0.5-1.1,0.7-2.4,0.6-3.7v-2.3h6.2v2.5
			c0.2,2.7-0.6,5.4-2.3,7.5c-1.8,1.8-4.3,2.7-6.8,2.6c-2.4,0.1-4.8-0.8-6.4-2.7c-1.7-2.1-2.5-4.7-2.4-7.4L318.1,417.9z M341,427.1
			v-32.5h6.1v3.6c1-1.2,2.1-2.2,3.5-3c1-0.6,2.2-1,3.5-1c1.2-0.1,2.4,0.5,3.2,1.5c0.8,1.3,1.2,2.8,1.1,4.3v27.2h-6.2v-24.5
			c0.1-0.7-0.1-1.4-0.4-2.1c-0.3-0.4-0.8-0.6-1.3-0.5c-0.6,0.1-1.2,0.3-1.7,0.7c-0.7,0.5-1.3,1.1-1.9,1.8v24.6L341,427.1z
			 M370.2,420.9c0.4,0.5,0.9,0.9,1.4,1.2c0.5,0.3,1,0.4,1.5,0.4c0.6,0,1.2-0.2,1.6-0.7c0.4-0.7,0.6-1.5,0.5-2.3v-16.7
			c0.1-0.9-0.1-1.7-0.6-2.5c-0.4-0.6-1.1-0.9-1.9-0.9c-0.4,0-0.9,0.1-1.3,0.3c-0.5,0.2-0.9,0.6-1.3,1L370.2,420.9L370.2,420.9z
			 M364.1,427.1v-44h6.1v14.2c0.7-0.9,1.6-1.7,2.6-2.3c0.8-0.5,1.8-0.8,2.8-0.8c1.7-0.1,3.4,0.7,4.4,2.1c1.1,1.8,1.6,3.9,1.5,6v18.1
			c0.1,1.9-0.3,3.8-1.4,5.3c-1,1.2-2.5,2-4.1,1.9c-1.1,0-2.2-0.2-3.2-0.7c-1-0.5-1.9-1.3-2.6-2.2v2.5L364.1,427.1z M392.4,419.5
			c0,0.8,0.2,1.5,0.7,2.1c0.5,0.5,1.1,0.7,1.8,0.7c0.7,0,1.5-0.3,2-0.8c0.5-0.6,0.7-1.3,0.7-2.1v-17.5c0-0.6-0.2-1.3-0.7-1.7
			c-0.5-0.5-1.2-0.7-1.9-0.7c-0.7,0-1.3,0.2-1.8,0.7c-0.5,0.4-0.7,1.1-0.7,1.7v17.7L392.4,419.5z M386.1,402c-0.1-2.3,0.8-4.5,2.5-6
			c1.8-1.6,4.1-2.4,6.5-2.3c2.3-0.1,4.5,0.8,6.1,2.4c1.6,1.6,2.4,3.8,2.4,6v16.8c0.1,2.4-0.7,4.8-2.4,6.5c-1.7,1.6-4.1,2.5-6.4,2.4
			c-2.4,0.1-4.7-0.8-6.3-2.5c-1.7-1.8-2.5-4.2-2.4-6.6L386.1,402L386.1,402z M396.3,391.2v-6.1h5.6v6.1H396.3z M388,391.2v-6.1h5.6
			v6.1H388z M408.3,417.9v-14.3c-0.1-2.6,0.8-5.2,2.5-7.1c1.7-1.8,4.1-2.8,6.6-2.7c2.4-0.1,4.7,0.8,6.3,2.6c1.6,2,2.4,4.5,2.3,7v2.6
			h-6.2v-2.7c0.1-1-0.1-2.1-0.6-3c-0.5-0.6-1.2-0.9-2-0.9c-0.8-0.1-1.6,0.3-2.1,0.9c-0.5,0.9-0.7,1.9-0.6,3v14.4
			c-0.1,1.2,0.1,2.4,0.6,3.6c0.4,0.7,1.3,1.1,2.1,1c0.8,0.1,1.6-0.3,2.1-0.9c0.5-1.1,0.7-2.4,0.6-3.7v-2.5h6.2v2.7
			c0.2,2.7-0.6,5.4-2.3,7.5c-1.8,1.8-4.3,2.8-6.8,2.6c-2.4,0.1-4.7-0.9-6.3-2.7c-1.7-2.1-2.5-4.7-2.4-7.3L408.3,417.9z M431.2,427.1
			v-44h6.1v23.5l5.5-12h6.5l-6,10.9l6.4,21.6h-6.1l-4.5-15.9l-2.1,3.9v12.3L431.2,427.1z"/>
	</g>
</g>
</svg>
