<svg xmlns="http://www.w3.org/2000/svg" width="301.744" height="82.931" viewBox="0 0 301.744 82.931"><g transform="translate(150.93 42.342)"><g transform="translate(-150.814 -40.589)"><path d="M4.817,129.415H6.57l4.208-14.962h0l4.266,14.962H16.74L21.3,112.7H19.72l-3.8,14.611h-.058L11.772,112.7H9.785L5.752,127.311H5.694L1.895,112.7H.2Z" transform="translate(-0.2 -48.587)" fill-rule="evenodd"/><path d="M41.587,124.133c.058-1.987,1.4-2.805,3.214-2.805s3.156.468,3.156,2.455-.7,1.52-1.87,1.636c-3.156.351-6.487.468-6.487,3.857,0,2.455,1.812,3.507,4.033,3.507a4.62,4.62,0,0,0,4.383-2.455h.058c0,1.286.234,2.1,1.753,2.1l.935-.117v-1.169l-.468.117a.76.76,0,0,1-.877-.877v-6.429c0-3.214-2.338-3.857-4.442-3.857s-4.734,1.227-4.909,4.033Zm6.37,3.682a3.927,3.927,0,0,1-4.208,3.8c-2.221,0-2.688-.935-2.688-2.4,0-2.338,3.1-2.338,5.611-2.805.409-.058,1.052-.175,1.227-.526h.058Z" transform="translate(-16.573 -51.663)" fill-rule="evenodd"/><path d="M72.951,123.957c-.117-2.63-1.987-3.857-4.442-3.857s-4.559.935-4.559,3.39,1.461,2.688,3.39,3.214l1.87.409c1.344.351,2.63.818,2.63,2.221s-1.929,2.279-3.273,2.279S65.12,130.561,65,128.574H63.6c.234,2.922,2.162,4.266,4.968,4.266s4.851-.994,4.851-3.624-1.753-3.1-3.448-3.331l-1.987-.468c-.994-.234-2.513-.7-2.513-2.046s1.52-2.1,2.864-2.1,3.1.818,3.156,2.63Z" transform="translate(-26.547 -51.663)" fill-rule="evenodd"/><path d="M95.451,123.957c-.117-2.63-1.987-3.857-4.442-3.857s-4.559.935-4.559,3.39,1.461,2.688,3.39,3.214l1.87.409c1.344.351,2.63.818,2.63,2.221s-1.929,2.279-3.273,2.279-3.448-1.052-3.565-3.039H86.1c.234,2.922,2.162,4.266,4.968,4.266s4.851-.994,4.851-3.624-1.753-3.1-3.448-3.331l-1.987-.468c-.994-.234-2.513-.7-2.513-2.046s1.52-2.1,2.864-2.1,3.1.818,3.156,2.63Z" transform="translate(-35.897 -51.663)" fill-rule="evenodd"/><path d="M110.261,125.552c.234-2.221,1.578-4.325,3.974-4.325s3.74,2.1,3.857,4.325Zm9.293,1.227c.117-3.39-1.4-6.779-5.318-6.779s-5.435,3.214-5.435,6.37,1.636,6.37,5.435,6.37,4.617-1.578,5.26-4.325h-1.461a3.7,3.7,0,0,1-3.8,3.1c-2.162,0-3.974-2.572-3.974-4.734Z" transform="translate(-45.33 -51.621)" fill-rule="evenodd"/><path d="M133.8,132.6h1.461v-6.429a4.15,4.15,0,0,1,4.5-4.325V120.39a4.442,4.442,0,0,0-4.559,2.981h-.058v-2.805H133.8Z" transform="translate(-55.719 -51.777)" fill-rule="evenodd"/><path d="M179.517,129.415h1.753l4.208-14.962h.058l4.208,14.962h1.695l4.617-16.715h-1.578l-3.857,14.611h0L186.53,112.7h-1.987l-4.091,14.611h-.058l-3.8-14.611H174.9Z" transform="translate(-72.799 -48.587)" fill-rule="evenodd"/><path d="M217.787,121.224c.058-1.987,1.4-2.805,3.214-2.805s3.156.468,3.156,2.455-.7,1.52-1.87,1.636c-3.156.351-6.487.468-6.487,3.857,0,2.455,1.812,3.507,4.033,3.507a4.62,4.62,0,0,0,4.383-2.455h.058c0,1.286.234,2.1,1.753,2.1l.935-.117v-1.169l-.468.117a.76.76,0,0,1-.877-.877v-6.429c0-3.214-2.338-3.857-4.442-3.857s-4.734,1.227-4.909,4.033Zm6.37,3.682a3.927,3.927,0,0,1-4.208,3.8c-2.221,0-2.688-.935-2.688-2.4,0-2.338,3.1-2.338,5.611-2.805.409-.058,1.052-.175,1.227-.526h.058Zm-4.325-9.468V113.1h-1.578v2.338Zm4.149,0V113.1h-1.636v2.338Z" transform="translate(-89.796 -48.754)" fill-rule="evenodd"/><path d="M240.9,132.6h1.461v-6.429a4.149,4.149,0,0,1,4.5-4.325V120.39a4.442,4.442,0,0,0-4.559,2.981h-.058v-2.805H240.9Z" transform="translate(-100.226 -51.777)" fill-rule="evenodd"/><path d="M256.8,132.487h1.461v-6.721c0-2.513,1.052-4.442,3.624-4.442s2.572,1.344,2.513,2.981v8.182h1.461V125.65c0-2.221.7-4.325,3.273-4.325S272,122.377,272,124.364v8.124h1.461v-8.182c0-2.864-1.344-4.208-3.974-4.208a4.091,4.091,0,0,0-3.857,2.338,3.36,3.36,0,0,0-3.448-2.338,4.208,4.208,0,0,0-3.974,2.4h-.058v-2.046H256.8Z" transform="translate(-106.834 -51.66)" fill-rule="evenodd"/><path d="M293.861,125.552c.234-2.221,1.578-4.325,3.974-4.325s3.74,2.1,3.857,4.325Zm9.293,1.227c.117-3.39-1.4-6.779-5.318-6.779s-5.435,3.214-5.435,6.37,1.636,6.37,5.435,6.37,4.617-1.578,5.26-4.325h-1.461a3.7,3.7,0,0,1-3.8,3.1c-2.162,0-3.974-2.572-3.974-4.734Z" transform="translate(-121.628 -51.621)" fill-rule="evenodd"/><path d="M347.317,129.415h1.753l4.208-14.962h0l4.266,14.962h1.695L363.8,112.7H362.22l-3.8,14.611h-.058L354.272,112.7h-1.987l-4.033,14.611h-.058l-3.8-14.611H342.7Z" transform="translate(-142.531 -48.587)" fill-rule="evenodd"/><path d="M384.361,125.552c.234-2.221,1.578-4.325,3.974-4.325s3.74,2.1,3.857,4.325Zm9.293,1.227c.117-3.39-1.4-6.779-5.318-6.779s-5.435,3.214-5.435,6.37,1.636,6.37,5.435,6.37,4.617-1.578,5.26-4.325h-1.461a3.7,3.7,0,0,1-3.8,3.1c-2.162,0-3.974-2.572-3.974-4.734Z" transform="translate(-159.237 -51.621)" fill-rule="evenodd"/><rect width="1.461" height="16.691" transform="translate(238.333 64.113)"/><rect width="1.461" height="16.691" transform="translate(244.586 64.113)"/><path d="M429.258,132.447h1.461v-7.013c.058-2.338,1.461-4.149,3.8-4.149s3.039,1.578,3.039,3.624v7.539h1.461v-7.773c0-2.864-1.052-4.675-4.442-4.675a4.091,4.091,0,0,0-3.857,2.455h-.058v-2.1H429.2Z" transform="translate(-178.477 -51.62)" fill-rule="evenodd"/><path d="M454.561,125.552c.234-2.221,1.578-4.325,3.974-4.325s3.74,2.1,3.857,4.325Zm9.293,1.227c.117-3.39-1.4-6.779-5.318-6.779s-5.435,3.214-5.435,6.37,1.636,6.37,5.435,6.37,4.617-1.578,5.26-4.325h-1.461a3.7,3.7,0,0,1-3.8,3.1c-2.162,0-3.974-2.572-3.974-4.734Z" transform="translate(-188.409 -51.621)" fill-rule="evenodd"/><path d="M486.351,123.957c-.117-2.63-1.987-3.857-4.442-3.857s-4.559.935-4.559,3.39,1.461,2.688,3.39,3.214l1.87.409c1.344.351,2.63.818,2.63,2.221s-1.929,2.279-3.273,2.279-3.448-1.052-3.565-3.039H477c.234,2.922,2.162,4.266,4.968,4.266s4.851-.994,4.851-3.624-1.753-3.1-3.448-3.331l-1.987-.468c-.994-.234-2.513-.7-2.513-2.046s1.52-2.1,2.864-2.1,3.1.818,3.156,2.63Z" transform="translate(-198.341 -51.663)" fill-rule="evenodd"/><path d="M508.909,123.957c-.117-2.63-1.987-3.857-4.442-3.857s-4.559.935-4.559,3.39,1.461,2.688,3.39,3.214l1.87.409c1.344.351,2.63.818,2.63,2.221s-1.929,2.279-3.273,2.279-3.448-1.052-3.565-3.039H499.5c.234,2.922,2.162,4.266,4.968,4.266s4.851-.994,4.851-3.624-1.753-3.1-3.448-3.331l-1.987-.468c-.994-.234-2.513-.7-2.513-2.046s1.519-2.1,2.864-2.1,3.1.818,3.156,2.63Z" transform="translate(-207.691 -51.663)" fill-rule="evenodd"/><rect width="57.976" height="57.982" transform="translate(1.636)" fill="#0678b4"/><rect width="57.976" height="57.982" transform="translate(1.636)" fill="none" stroke="#000" stroke-miterlimit="3.86" stroke-width="3.507"/><rect width="231.962" height="57.982" transform="translate(67.911)" fill="#e60000"/><rect width="231.962" height="57.982" transform="translate(67.911)" fill="none" stroke="#000" stroke-miterlimit="3.86" stroke-width="3.507"/><path d="M142.159,51.607h4.559a4.563,4.563,0,0,0,3.273-.935,3.39,3.39,0,0,0,.935-2.513,3.039,3.039,0,0,0-.935-2.338,4.773,4.773,0,0,0-3.273-.877h-4.559Zm0-12.974h3.916A4.094,4.094,0,0,0,149,37.815a3.273,3.273,0,0,0,.818-2.4A3.039,3.039,0,0,0,149,33.139a3.992,3.992,0,0,0-2.864-.818h-3.974ZM133.1,25.6h16.773A8.334,8.334,0,0,1,156.3,28a8.182,8.182,0,0,1,2.279,5.844A8.065,8.065,0,0,1,157,38.867a7.072,7.072,0,0,1-3.1,2.221,7.89,7.89,0,0,1,4.559,2.981,8.767,8.767,0,0,1,1.461,5.26,10.052,10.052,0,0,1-1.052,4.617,8.357,8.357,0,0,1-2.864,3.273,8.591,8.591,0,0,1-3.39,1.11,34.423,34.423,0,0,1-4.033.468H133.1Z" transform="translate(-55.429 -12.392)" fill="#fff" fill-rule="evenodd"/><path d="M209.529,12.4h5.2v5.611h-5.2Zm-8.357,0h5.143v5.611h-5.143Zm11.747,7.715h8.942V39.868a18.7,18.7,0,0,1-.818,5.552,12.273,12.273,0,0,1-2.513,4.559,9.994,9.994,0,0,1-3.565,2.747,16.013,16.013,0,0,1-6.253,1.11,34.832,34.832,0,0,1-4.617-.351,11.046,11.046,0,0,1-9.176-8.007,22.325,22.325,0,0,1-.818-5.611V20.115h8.942V40.336a6.37,6.37,0,0,0,1.286,4.266,4.617,4.617,0,0,0,3.682,1.52,4.559,4.559,0,0,0,3.623-1.461,6.225,6.225,0,0,0,1.344-4.266Z" transform="translate(-80.778 -6.906)" fill="#fff" fill-rule="evenodd"/><path d="M269.8,38.984h3.8a11.922,11.922,0,0,0,2.4-.468,2.338,2.338,0,0,0,1.461-1.052,3.331,3.331,0,0,0,.584-1.929,3.273,3.273,0,0,0-.877-2.455q-.877-.877-3.331-.877h-3.916Zm-9,19.7V25.6h14.9a19.259,19.259,0,0,1,6.37.818,6.9,6.9,0,0,1,3.565,3.039,10.052,10.052,0,0,1,1.344,5.377,10.344,10.344,0,0,1-1.052,4.734,8.708,8.708,0,0,1-2.805,3.214,9.994,9.994,0,0,1-3.156,1.286,8.475,8.475,0,0,1,2.338,1.227,9.643,9.643,0,0,1,1.4,1.753A12.979,12.979,0,0,1,285,49.094l4.325,9.585H279.151l-4.792-10.111A7.714,7.714,0,0,0,272.722,46a3.448,3.448,0,0,0-2.221-.76h-.818V58.679Z" transform="translate(-108.496 -12.392)" fill="#fff" fill-rule="evenodd"/><path d="M335.9,46.366v-6.9H349.75V53.613a27.468,27.468,0,0,1-7.013,4.208,21.215,21.215,0,0,1-7.247,1.11,16.018,16.018,0,0,1-8.416-1.987,13.208,13.208,0,0,1-5.026-5.961,22.092,22.092,0,0,1-1.753-9.117,21.156,21.156,0,0,1,1.929-9.409,13.5,13.5,0,0,1,5.727-6.078A16.827,16.827,0,0,1,335.9,24.8q5.026,0,7.189.994a9.292,9.292,0,0,1,3.974,3.1,14.26,14.26,0,0,1,2.4,5.26l-8.65,1.753A5.318,5.318,0,0,0,339,33.041a5.084,5.084,0,0,0-3.214-.994,5.611,5.611,0,0,0-4.676,2.338q-1.753,2.338-1.753,7.364t1.753,7.656a5.9,5.9,0,0,0,4.968,2.279,8.3,8.3,0,0,0,2.864-.468,14.67,14.67,0,0,0,3.1-1.695V46.366Z" transform="translate(-133.217 -12.059)" fill="#fff" fill-rule="evenodd"/><path d="M388.6,25.6h24.02v7.072H397.6v5.26h13.91v6.721H397.6V51.2h15.429v7.481H388.6Z" transform="translate(-161.605 -12.392)" fill="#fff" fill-rule="evenodd"/><path d="M456.7,38.984h3.8a11.922,11.922,0,0,0,2.4-.468,2.338,2.338,0,0,0,1.461-1.052,3.331,3.331,0,0,0,.584-1.929,3.273,3.273,0,0,0-.877-2.455,5.4,5.4,0,0,0-3.39-.818h-3.916Zm-9,19.7V25.6h14.9a19.259,19.259,0,0,1,6.37.818,6.9,6.9,0,0,1,3.565,3.039,10.052,10.052,0,0,1,1.344,5.377,10.344,10.344,0,0,1-1.052,4.734,8.708,8.708,0,0,1-2.805,3.214,9.994,9.994,0,0,1-3.156,1.286,8.474,8.474,0,0,1,2.338,1.227,9.7,9.7,0,0,1,1.4,1.753,12.978,12.978,0,0,1,1.286,2.046l4.325,9.585H466.11l-4.792-10.111A7.715,7.715,0,0,0,459.681,46a3.448,3.448,0,0,0-2.221-.76h-.818V58.679Z" transform="translate(-186.165 -12.392)" fill="#fff" fill-rule="evenodd"/><path d="M19.6,17.36V15.49l7.6-3.39h2.63V42.432c0,3.273,2.4,3.273,2.4,3.273v2.864H19.6V45.763s2.572,0,2.572-3.331V17.3Z" transform="translate(-8.262 -6.782)" fill="#fff"/><path d="M58.524,45.54a1.937,1.937,0,0,1-2.279,2.1c-.643,0-2.1-.526-2.1-3.624s4.383-4.909,4.383-4.909Zm8.65,2.455a1.52,1.52,0,0,1-.351-1.052v-15.6c0-5.552-5.727-6.838-9.409-6.838s-8.065,1.4-9.643,4.383a7.584,7.584,0,0,0,0,6.253l6.9-2.1s-.058-2.922-.058-3.214c0-2.63,3.916-2.747,3.916-.643v6.37l-7.481,3.565A8.428,8.428,0,0,0,45.9,46.533c0,3.565,1.987,7.13,5.9,7.13s6.838-3.273,6.838-3.273S60.16,53.9,63.024,53.9,69.1,50.975,69.1,50.975V47.059S67.583,48.345,67.173,47.994Z" transform="translate(-19.191 -11.935)" fill="#fff"/><path d="M60.221,88.083a.4.4,0,0,1-.468.409c-.117,0-.409-.117-.409-.76s.935-1.052.935-1.052Zm1.812.526a.351.351,0,0,1-.058-.234V85.1c0-1.169-1.227-1.4-1.987-1.4a2.373,2.373,0,0,0-2.046.935,1.578,1.578,0,0,0,0,1.286l1.461-.468V84.81c0-.526.818-.584.818-.117v1.344l-1.578.76a1.753,1.753,0,0,0-1.052,1.578,1.344,1.344,0,0,0,1.227,1.52,2.162,2.162,0,0,0,1.461-.7s.292.76.935.76a2.4,2.4,0,0,0,1.286-.643v-.935S62.15,88.668,62.033,88.609Z" transform="translate(-24.045 -36.536)" fill="#fff"/><path d="M40.621,88.183a.4.4,0,0,1-.468.409c-.117,0-.409-.117-.409-.76s.877-.994.877-.994Zm1.812.526a.351.351,0,0,1-.058-.234V85.2c0-1.169-1.227-1.4-1.987-1.4a2.373,2.373,0,0,0-2.046.935,1.578,1.578,0,0,0,0,1.286l1.461-.468V84.91c0-.526.818-.584.818-.117v1.344l-1.578.7a1.753,1.753,0,0,0-1.052,1.578,1.344,1.344,0,0,0,1.227,1.52,2.162,2.162,0,0,0,1.4-.76s.292.76.935.76a2.4,2.4,0,0,0,1.286-.643v-.818s-.351.292-.409.234Z" transform="translate(-15.9 -36.578)" fill="#fff"/><path d="M52.2,80.086v-.468l1.812-.818h.643v7.364c0,.818.584.818.584.818v.7H52.2v-.7s.584,0,.584-.818V80.086Z" transform="translate(-21.809 -34.5)" fill="#fff"/><path d="M46.7,80.086v-.468l1.812-.818h.643v7.364c0,.818.584.818.584.818v.7H46.7v-.7s.584,0,.584-.818V80.086Z" transform="translate(-19.524 -34.5)" fill="#fff"/><path d="M12.539,79.4v-.7H9.5v.7s.584,0,.584.818v5.961C10.084,87,9.5,87,9.5,87v.643h3.039v-.7s-.584,0-.584-.818v-5.9C11.955,79.4,12.539,79.4,12.539,79.4Z" transform="translate(-4.065 -34.458)" fill="#fff"/><path d="M16.2,89.715h2.455v-.643s-.409,0-.409-.643V85.566a.86.86,0,0,1,.7-.643c.643-.175.409.526.409.526v2.922c0,.7-.409.643-.409.643v.7h2.4v-.643s-.351,0-.351-.643V84.923A1.11,1.11,0,0,0,19.823,83.7a1.753,1.753,0,0,0-1.636.818V83.7l-1.987.76v.234s.351.234.351.526v3.156c0,.7-.351.643-.351.643Z" transform="translate(-6.849 -36.532)" fill="#fff"/><path d="M32.926,88.37c0,.643.7.76,1.227.76a5.085,5.085,0,0,0,1.344-.292V88.2l-.526.117a.292.292,0,0,1-.351-.292V84.046H35.5v-.7h-.818V82h-.818s-.526,1.344-1.461,1.344v.76h.526Z" transform="translate(-13.581 -35.83)" fill="#fff"/><path d="M66.326,88.429c0,.643.7.76,1.227.76A5.084,5.084,0,0,0,68.9,88.9v-.643l-.526.117a.292.292,0,0,1-.351-.292V84.1H68.9v-.76h-.818V82h-.818s-.526,1.344-1.461,1.344v.76h.526Z" transform="translate(-27.461 -35.83)" fill="#fff"/><path d="M83.709,83.7l-2.1.351v.76s.409.117.409.76v2.4a.86.86,0,0,1-.7.643c-.643.175-.409-.526-.409-.526V83.758l-2.1.351v.76s.351.117.351.76v3.039A1.11,1.11,0,0,0,80.32,89.9a1.753,1.753,0,0,0,1.636-.818v.643H84v-.584s-.351-.117-.351-.409Z" transform="translate(-32.863 -36.536)" fill="#fff"/><path d="M89,89.72h2.455v-.643s-.409,0-.409-.643V86.388a.76.76,0,0,1,.409-.7c.351-.234.76.526.76.526l.818-.935a2.805,2.805,0,0,0-.526-1.4c-.935-.76-1.461,1.344-1.461,1.344V83.7L89,84.518v.234s.351.234.351.526v3.156c0,.7-.351.643-.351.643Z" transform="translate(-37.102 -36.536)" fill="#fff"/><path d="M73.175,84.243c.643,0,.526,1.52.526,1.52h-.935S72.649,84.243,73.175,84.243Zm2.338,2.1s.175-2.747-2.338-2.747S70.9,85.587,70.9,86.522s.117,3.214,2.338,3.214A2.162,2.162,0,0,0,75.4,88.275l-.526-.351a1.286,1.286,0,0,1-1.11.643c-1.11,0-1.052-2.221-1.052-2.221Z" transform="translate(-29.576 -36.494)" fill="#fff"/><path d="M29.207,85.7V84.124a2.922,2.922,0,0,0-1.812-.526A1.7,1.7,0,0,0,25.7,85.234c0,1.286,1.169,1.812,1.52,2.046s.877.7.877,1.169-.526.526-.584.526-1.169-1.286-1.169-1.286H25.7v1.578a3.1,3.1,0,0,0,1.695.526,1.929,1.929,0,0,0,2.046-1.753,2.116,2.116,0,0,0-1.227-1.987c-.7-.468-1.169-.818-1.169-1.169a.468.468,0,0,1,.584-.468c.526,0,1.052,1.286,1.052,1.286Z" transform="translate(-10.797 -36.492)" fill="#fff"/></g></g></svg>