<svg xmlns="http://www.w3.org/2000/svg" width="269.572" height="139.493" viewBox="0 0 269.572 139.493"><g transform="translate(134.786 69.746)"><g transform="translate(-134.786 -69.746)"><path d="M0,118.4H269.1v26.91H0V118.4Z" transform="translate(0 -5.817)" fill="red"/><g transform="translate(32.235 117.14)"><path d="M36.277,130.9H33.9l.571-2.662h2.282l.285-1.426a4.279,4.279,0,0,1,4.469-3.613,10.84,10.84,0,0,1,2.758.38l-.666,2.567a3.328,3.328,0,0,0-1.236-.285q-1.284,0-1.712,1.712l-.19.666h2.758l-.571,2.662H39.986l-1.712,8.273h-3.8Z" transform="translate(-33.9 -123.193)" fill="#fff"/><path d="M53.014,139.045a13.883,13.883,0,0,1-3.8.571c-3.613,0-5.61-2.187-5.61-4.945a6.276,6.276,0,0,1,6.561-6.371c2.853,0,5.04,1.426,5.04,4.754a12.077,12.077,0,0,1-.285,2.092h-7.7c0,1.141.666,2.092,2.948,2.092a8.558,8.558,0,0,0,3.423-.761Zm-1.046-6.086c0-1.141-.475-2.187-1.807-2.187a2.758,2.758,0,0,0-2.758,2.187Z" transform="translate(-34.377 -123.443)" fill="#fff"/><path d="M59.382,128.264h3.8L60.9,139.2H57.1Zm.951-4.564h3.8l-.571,2.758h-3.8Z" transform="translate(-35.04 -123.218)" fill="#fff"/><path d="M65.912,131.343c.19-.951.38-1.9.475-2.853h3.518L69.62,130.3h0a5.135,5.135,0,0,1,4.184-2c2.187,0,3.423,1.616,3.423,3.8a9.982,9.982,0,0,1-.285,2.282l-1.046,5.04h-3.8l1.046-5.135a8.749,8.749,0,0,0,.285-1.616A1.236,1.236,0,0,0,72,131.438c-1.616,0-2.567,1.426-2.758,2.948L68,139.425H64.2Z" transform="translate(-35.389 -123.444)" fill="#fff"/><path d="M79.661,136.473a7.607,7.607,0,0,0,3.043.666c.571,0,2.092-.1,2.092-.951s-4.469-.761-4.469-4.374,2.948-3.613,5.515-3.613a12.456,12.456,0,0,1,3.613.666l-.761,2.472a7.512,7.512,0,0,0-3.043-.571c-.856,0-1.712.19-1.712.951s4.659,1.141,4.659,3.9-2.282,3.994-5.135,4.089a17.305,17.305,0,0,1-4.564-.571Z" transform="translate(-36.111 -123.439)" fill="#fff"/><path d="M91.775,128.323h2.092l.475-2.377,3.994-1.046-.761,3.423h2.567l-.475,2.662H97.005l-.666,3.043a10.174,10.174,0,0,0-.285,1.9,1.141,1.141,0,0,0,1.236,1.236,3.708,3.708,0,0,0,1.236-.285l-.38,2.472-2.377.19c-1.9,0-3.423-.951-3.423-3.233a10.27,10.27,0,0,1,.38-2.187l.666-3.043H91.3Z" transform="translate(-36.72 -123.277)" fill="#fff"/><path d="M110.214,139.045a13.883,13.883,0,0,1-3.8.571c-3.613,0-5.61-2.187-5.61-4.945a6.276,6.276,0,0,1,6.561-6.371c2.853,0,5.04,1.426,5.04,4.754a11.981,11.981,0,0,1-.285,2.092h-7.7c0,1.141.666,2.092,2.948,2.092a8.463,8.463,0,0,0,3.423-.761Zm-1.046-6.086c0-1.141-.475-2.187-1.807-2.187a2.758,2.758,0,0,0-2.758,2.187Z" transform="translate(-37.187 -123.443)" fill="#fff"/><path d="M124.143,124.6h6.466c1.521,0,4.089.571,4.089,3.328s-1.521,3.423-3.8,3.708h0c1.712.285,2.853,1.236,2.853,2.853,0,3.138-2.662,4.564-5.99,4.564H121.1Zm1.331,11.791h1.046c2,0,3.233-.571,3.233-2s-.951-1.426-2.662-1.426h-.951Zm1.236-6.086h1.426c1.616,0,2.567-.666,2.567-1.616s-.951-1.331-2.377-1.331h-1.046Z" transform="translate(-38.184 -123.262)" fill="#fff"/><path d="M143.327,137.794h0a4.184,4.184,0,0,1-3.613,1.807c-2.377,0-3.613-1.046-3.613-3.138s2.662-3.994,5.99-3.994h2a1.521,1.521,0,0,0,0-.475c0-.761-.761-1.426-2-1.426a6.846,6.846,0,0,0-3.518.856l.38-2.758a11.791,11.791,0,0,1,3.994-.666c2.567,0,4.754,1.046,4.754,3.708s-.951,4.184-1.426,7.417h-3.043Zm-2.472-.761a2.853,2.853,0,0,0,2.853-2.567h-1.046c-1.807-.1-3.138.571-3.138,1.521a1.236,1.236,0,0,0,1.236,1.141Z" transform="translate(-38.921 -123.429)" fill="#fff"/><path d="M161.415,136.582c-.19.951-.38,1.9-.475,2.853h-3.518l.285-1.807h0a5.135,5.135,0,0,1-4.184,2c-2.187,0-3.423-1.616-3.423-3.8a10.079,10.079,0,0,1,.285-2.282l1.046-5.04h3.9l-1.046,5.135a8.747,8.747,0,0,0-.285,1.616,1.236,1.236,0,0,0,1.426,1.236c1.616,0,2.567-1.331,2.758-2.948l1.046-5.04h3.8Z" transform="translate(-39.609 -123.453)" fill="#fff"/><path d="M173.168,139.235a10.175,10.175,0,0,1-3.233.38,4.849,4.849,0,0,1-5.135-4.945c0-3.613,2.853-6.371,7.036-6.371a9.984,9.984,0,0,1,3.423.761l-.856,2.567a5.8,5.8,0,0,0-2.377-.571,3.138,3.138,0,0,0-3.328,3.518,2.377,2.377,0,0,0,2.567,2.377,5.8,5.8,0,0,0,2.377-.475Z" transform="translate(-40.331 -123.444)" fill="#fff"/><path d="M178.733,123.5h3.8l-1.331,6.371h0a4.564,4.564,0,0,1,3.8-1.807c2.187,0,3.423,1.616,3.423,3.8a9.986,9.986,0,0,1-.285,2.282l-1.046,5.04h-3.9l1.046-5.135a8.655,8.655,0,0,0,.285-1.616,1.236,1.236,0,0,0-1.426-1.236c-1.616,0-2.567,1.426-2.758,2.948l-1.046,5.04h-3.8Z" transform="translate(-40.857 -123.208)" fill="#fff"/><path d="M200.314,139.044a13.882,13.882,0,0,1-3.8.571c-3.613,0-5.61-2.187-5.61-4.945a6.276,6.276,0,0,1,6.561-6.371c2.853,0,5.04,1.426,5.04,4.754a11.979,11.979,0,0,1-.285,2.092h-7.7c0,1.141.666,2.092,2.948,2.092a8.463,8.463,0,0,0,3.423-.761Zm-1.046-6.086c0-1.141-.475-2.187-1.807-2.187a2.758,2.758,0,0,0-2.758,2.187Z" transform="translate(-41.613 -123.443)" fill="#fff"/><path d="M205.7,131.343c.19-.951.38-1.9.475-2.853H209.5l-.38,2h0a4.659,4.659,0,0,1,3.8-2.187,2.758,2.758,0,0,1,2.853,2.187,4.659,4.659,0,0,1,3.9-2.187c1.712,0,3.423.856,3.423,3.233a12.455,12.455,0,0,1-.285,2.472l-1.141,5.42h-3.8l1.046-5.325a7.892,7.892,0,0,0,.19-1.616,1.079,1.079,0,0,0-1.236-1.141c-.856,0-2,1.807-2.187,2.948l-1.046,5.04h-3.8L211.878,134a7.894,7.894,0,0,0,.19-1.616,1.079,1.079,0,0,0-1.236-1.141c-.856,0-2,1.807-2.282,2.948l-1.046,5.04h-3.8Z" transform="translate(-42.242 -123.443)" fill="#fff"/><path d="M227.587,128.264h3.8L229.2,139.2h-3.8Zm.951-4.564h3.8l-.571,2.758h-3.8Z" transform="translate(-43.308 -123.218)" fill="#fff"/><path d="M242.414,139.044a13.882,13.882,0,0,1-3.8.571c-3.613,0-5.61-2.187-5.61-4.945a6.276,6.276,0,0,1,6.561-6.371c2.853,0,5.04,1.426,5.04,4.754a12.077,12.077,0,0,1-.285,2.092h-7.7c0,1.141.666,2.092,2.948,2.092a8.463,8.463,0,0,0,3.423-.761Zm-1.046-6.086c0-1.141-.475-2.187-1.807-2.187a2.758,2.758,0,0,0-2.758,2.187Z" transform="translate(-43.682 -123.443)" fill="#fff"/></g><path d="M.975,66.262a54.009,54.009,0,0,0,15.309,2.187c11.41,0,22.631-3.613,22.631-17.021,0-18.637-24.342-13.027-24.342-21.3,0-4.469,5.8-4.754,9.223-4.754a27.575,27.575,0,0,1,11.41,2.377l.856-10.65A43.455,43.455,0,0,0,22.75,15.2C12.576,15.1.5,18.528.5,30.984c0,18.732,24.342,12.742,24.342,22.25,0,4.089-4.089,5.04-8.463,5.04A30.143,30.143,0,0,1,2.212,54.851Z" transform="translate(-0.025 -0.747)"/><path d="M65.345,69.122c12.742,0,22.345-7.417,22.345-20.063S78.087,28.9,65.345,28.9,43,36.317,43,49.058,52.7,69.122,65.345,69.122Zm0-9.319c-6.086,0-8.653-5.135-8.653-10.745s2.472-10.84,8.653-10.84S74,43.353,74,49.058,71.526,59.8,65.345,59.8Z" transform="translate(-2.113 -1.42)" fill-rule="evenodd"/><path d="M93.4,83.765h13.312V62.846h.19c2.472,4.564,7.512,6.276,12.171,6.276,11.41,0,17.591-9.414,17.591-20.824,0-9.319-5.8-19.4-16.45-19.4-6.086,0-11.7,2.472-14.358,7.8h-.19V29.756H93.4Zm29.477-35.087c0,6.086-3.043,10.364-8.082,10.364s-8.082-4.184-8.082-9.794,3.233-10.079,8.082-10.079S122.877,43.638,122.877,48.678Z" transform="translate(-4.589 -1.42)" fill-rule="evenodd"/><path d="M170.646,29.375a28.241,28.241,0,0,0-4.469-.475c-5.8,0-9.033,3.138-11.41,7.987h-.19V29.756H142.5v38.51h13.312V52.006c0-7.512,3.518-12.076,9.7-12.076a15.214,15.214,0,0,1,4.469.475l.666-11.03Z" transform="translate(-7.001 -1.42)"/><path d="M194.245,69.122c12.647,0,22.345-7.417,22.345-20.063S206.892,28.9,194.245,28.9,171.9,36.317,171.9,49.058,181.6,69.122,194.245,69.122Zm0-9.319c-6.086,0-8.653-5.135-8.653-10.745s2.472-10.84,8.653-10.84,8.653,5.135,8.653,10.84S200.426,59.8,194.245,59.8Z" transform="translate(-8.445 -1.42)" fill-rule="evenodd"/><path d="M182.656,0l-5.04,12.456c38.13,5.61,65.135,19.208,65.135,35.182,0,19.778-41.648,36.038-94.612,37.75L143.1,97.94c74.073-.761,133.5-22.916,133.5-50.206C276.6,25.483,237.236,6.656,182.656,0Z" transform="translate(-7.03)" fill="red"/></g></g></svg>