<svg xmlns="http://www.w3.org/2000/svg" width="434.041" height="71.809" viewBox="0 0 434.041 71.809"><g transform="translate(217.02 35.904)"><g transform="translate(-217.02 -35.904)"><path d="M133.1,64.853l-5.75-6.345a30.932,30.932,0,0,1-8.923,6.147,25.182,25.182,0,0,1-9.914,1.785,23.6,23.6,0,0,1-16.061-5.155A17.052,17.052,0,0,1,86.5,47.8,16.656,16.656,0,0,1,90.073,37.49a35.294,35.294,0,0,1,10.906-8.724,24.389,24.389,0,0,1-5.552-6.94,16.457,16.457,0,0,1-1.586-7.138A12.69,12.69,0,0,1,99,3.98,20.82,20.82,0,0,1,112.281.015a20.225,20.225,0,0,1,12.888,3.767,12.1,12.1,0,0,1,4.759,9.914,12.888,12.888,0,0,1-2.776,7.931,39.062,39.062,0,0,1-9.716,8.13l11.5,12.69,5.354-5.155,4.561-4.957,7.535,7.535-4.957,5.155-5.552,5.354,12.492,14.276ZM120.212,50.775,107.324,36.1l-1.388.991a19.63,19.63,0,0,0-5.155,4.759,8.922,8.922,0,0,0-1.586,5.155,8.129,8.129,0,0,0,2.776,6.147,9.716,9.716,0,0,0,6.742,2.578,16.061,16.061,0,0,0,6.543-1.19,13.285,13.285,0,0,0,4.957-3.767Zm-9.518-27.363,2.379-1.388a12.492,12.492,0,0,0,3.966-3.569,7.337,7.337,0,0,0,1.388-4.164,5.948,5.948,0,0,0-1.785-4.56,6.345,6.345,0,0,0-4.561-1.785,6.94,6.94,0,0,0-4.957,1.785,5.949,5.949,0,0,0-1.785,4.759,6.94,6.94,0,0,0,.595,2.578,8.526,8.526,0,0,0,1.586,2.578Z" transform="translate(85.011 0.015)" fill="#d0d1d1"/><path d="M178.851,18.753H173.5V13.6h5.354Zm6.345,0h-5.552V13.6H185Zm6.345,0h-5.552V13.6h5.354Zm-40.846,11.9h-5.552V25.494H150.5Zm0-5.948h-5.552V19.546H150.5Zm0-5.948h-5.552V13.6H150.5Zm18.837,11.9h-5.75V25.494h5.354ZM150.695,12.8h-5.552V7.649H150.5Zm18.837,11.9h-5.75V19.546h5.354ZM150.695,6.856h-5.552V1.7H150.5Zm18.837,11.9h-5.75V13.6h5.354Zm-12.888-11.9H151.29V1.7h5.354ZM169.135,12.8h-5.354V7.649h5.354ZM162.79,6.856h-5.155V1.7h5.354Zm6.345,0h-5.354V1.7h.793a4.56,4.56,0,0,1,3.173,1.19,4.164,4.164,0,0,1,1.388,2.974ZM121.944,30.65h-.793a4.56,4.56,0,0,1-3.173-1.19,4.164,4.164,0,0,1-1.388-2.974v-.793h5.354Zm6.345,0h-5.354V25.494h5.354ZM121.944,24.7h-5.155V19.546h5.354Zm12.492,5.948H129.28V25.494h5.354Zm-12.492-11.9h-5.155V13.6h5.354Zm18.837,11.9h-5.354V25.494h5.354Zm-12.492-11.9h-5.354V13.6h5.354ZM121.944,12.8h-5.155V7.649h5.354Zm12.492,5.948H129.28V13.6h5.354Zm-12.492-11.9h-5.155V6.063a4.164,4.164,0,0,1,1.388-2.974,4.561,4.561,0,0,1,3.173-1.19h.793Zm18.837,7.535a4.164,4.164,0,0,1-1.388,2.974,4.56,4.56,0,0,1-3.173,1.19h-.793V13.6h5.354ZM128.289,6.856h-5.354V1.7h5.354ZM140.781,12.8h-5.354V7.649h5.354Zm-6.345-5.948H129.28V1.7h5.354Zm6.345,0h-5.354V1.7h.793a4.561,4.561,0,0,1,3.173,1.19,4.164,4.164,0,0,1,1.388,3.173ZM93.59,30.65H88.434V25.494h5.354Zm6.345,0H94.581V25.494h5.354Zm6.345,0h-5.354V25.494h5.354Zm-12.492-11.9h-.793a4.561,4.561,0,0,1-3.173-1.19,4.164,4.164,0,0,1-1.388-2.974V13.6h5.354Zm18.837,7.535a4.164,4.164,0,0,1-1.388,2.974,4.561,4.561,0,0,1-3.173,1.19h-.991V25.494h5.354Zm-12.492-7.535H94.581V13.6h5.354ZM93.788,12.8H88.434V7.649h5.354Zm18.837,11.9h-5.552V19.546h5.354Zm-6.345-5.948h-5.354V13.6h5.354ZM93.788,6.856H88.434V6.063a4.164,4.164,0,0,1,1.388-2.974A4.561,4.561,0,0,1,92.995,1.9h.793Zm18.837,11.9h-5.552V13.6h.793a4.561,4.561,0,0,1,3.173,1.19,4.164,4.164,0,0,1,1.388,2.974Zm-12.492-11.9H94.581V1.7h5.354Zm6.345,0h-5.552V1.7h5.354Zm6.345,0h-5.75V1.7h5.354ZM65.433,30.65H64.64a4.56,4.56,0,0,1-3.173-1.19,4.164,4.164,0,0,1-1.388-2.974v-.793h5.354Zm6.345,0H66.227V25.494H71.58ZM65.433,24.7H60.08V19.546h5.354ZM77.925,30.65H72.572V25.494h5.354Zm-12.492-11.9H60.08V13.6h5.354ZM84.27,30.65H78.718V25.494h5.354Zm-12.492-11.9H66.227V13.6H71.58ZM65.433,12.8H60.08V7.649h5.354Zm12.492,5.948H72.572V13.6h5.354ZM65.433,6.856H60.08V6.063a4.164,4.164,0,0,1,1.388-2.974A4.561,4.561,0,0,1,64.64,1.9h.793ZM84.27,14.391a4.164,4.164,0,0,1-1.388,2.974,4.56,4.56,0,0,1-3.173,1.19h-.793V13.6H84.27ZM71.58,6.856H66.227V1.7H71.58ZM84.072,12.8H78.718V7.649h5.354ZM77.727,6.856H72.572V1.7h5.354Zm6.345,0H78.718V1.7h.793a4.561,4.561,0,0,1,3.173,1.19,4.164,4.164,0,0,1,1.388,2.974ZM55.718,30.65H50.364V25.494h5.354Zm0-5.948H50.364V19.546h5.354Zm0-5.948H50.364V13.6h5.354Zm0-5.948H50.364V7.649h.793a4.56,4.56,0,0,1,3.173,1.19,4.164,4.164,0,0,1,1.388,2.974Zm0-5.948H50.364V1.7h5.354ZM33.708,30.65h-.793a4.56,4.56,0,0,1-3.173-1.19,4.164,4.164,0,0,1-1.388-2.974v-.793h5.354Zm6.345,0H34.7V25.494h5.354ZM33.708,24.7H28.355V19.546h5.354ZM46.2,30.65H40.846V25.494H46.2Zm-12.492-11.9H28.355V13.6h5.354Zm0-5.948H28.355V7.649h5.354Zm0-5.948H28.355V1.7h5.354ZM5.354,30.65H0V25.494H5.354Zm0-5.948H0V19.546H5.354Zm0-5.948H0V13.6H5.354Zm6.345,0H6.345V13.6H11.7ZM5.354,12.8H0V7.649H5.354Zm12.492,5.948H12.492V13.6h5.354ZM5.354,6.856H0V6.063A4.164,4.164,0,0,1,1.388,2.89,4.561,4.561,0,0,1,4.561,1.7h.793Zm6.345,0H6.345V1.7H11.7Zm6.147,0H12.492V1.7h5.354Zm6.345,0H18.837V1.7h5.354Z" transform="translate(0 1.7)" fill="#545454"/><path d="M252.806,50.55h-5.354V45.593h5.354Zm0-5.948h-5.354V39.644h5.354Zm0-5.948h-5.354V33.7h5.354Zm18.837,11.9H266.29V45.593h5.354ZM252.806,32.7h-5.354V27.747h5.354Zm18.837,11.9H266.29V39.644h5.354ZM252.806,26.756h-5.354V21.6h5.354Zm18.837,11.9H266.29V33.7h5.354Zm-12.492-11.9H253.8V21.6h5.354ZM271.643,32.7H266.29V27.747h5.354ZM265.3,26.756h-5.354V21.6H265.3Zm6.345,0H266.29V21.6h.793a4.56,4.56,0,0,1,3.173,1.19,4.164,4.164,0,0,1,1.388,2.974ZM243.289,50.55h-5.354V45.593h5.354Zm0-5.948h-5.354V39.644h5.354Zm0-5.948h-5.354V33.7h5.354Zm0-5.948h-5.354V27.747h.793a4.561,4.561,0,0,1,3.173,1.19,4.164,4.164,0,0,1,1.388,2.974Zm0-5.948h-5.354V21.6h5.354ZM214.934,50.55h-.793a4.561,4.561,0,0,1-3.173-1.19,4.164,4.164,0,0,1-1.388-2.974v-.793h5.354Zm6.345,0h-5.354V45.593h5.155ZM214.934,44.6h-5.354V39.644h5.354Zm12.492,5.948h-5.354V45.593h5.354Zm-12.492-11.9h-5.354V33.7h5.354Zm18.837,11.9h-5.354V45.593h5.354Zm-12.492-11.9h-5.354V33.7h5.155ZM214.934,32.7h-5.354V27.747h5.354Zm12.492,5.948h-5.354V33.7h5.354Zm-12.492-11.9h-5.354v-.793a4.164,4.164,0,0,1,1.388-2.974,4.561,4.561,0,0,1,3.173-1.19h.793Zm18.837,7.535a4.164,4.164,0,0,1-1.388,2.974,4.56,4.56,0,0,1-3.173,1.19h-.793V33.7h5.354Zm-12.69-7.535h-5.354V21.6h5.354ZM233.573,32.7h-5.354V27.747h5.354Zm-6.345-5.948h-5.354V21.6h5.354Zm6.345,0h-5.354V21.6h.793a4.561,4.561,0,0,1,3.173,1.19,4.164,4.164,0,0,1,1.388,2.974ZM186.382,50.55h-.793a4.561,4.561,0,0,1-3.173-1.19,4.164,4.164,0,0,1-1.388-2.974v-.793h5.354Zm6.345,0h-5.354V45.593h5.354ZM186.382,44.6h-5.155V39.644h5.354Zm12.492,5.948H193.52V45.593h5.354Zm-12.492-11.9h-5.155V33.7h5.354Zm18.837,7.535a4.164,4.164,0,0,1-1.388,2.974,4.56,4.56,0,0,1-3.173,1.19h-.793V45.593h5.354ZM186.382,32.7h-5.155V27.747h5.354Zm18.837,11.9h-5.354V39.644h5.354ZM192.727,32.7h-5.354V27.747h5.354Zm-6.345-5.948h-5.155V21.6h5.354ZM198.874,32.7H193.52V27.747h5.354Zm6.345,0h-5.354V27.747h5.354ZM158.027,50.55h-5.155V45.593h5.354Zm6.345,0h-5.155V45.593h5.354Zm6.345,0h-5.354V45.593h5.354Zm-12.492-11.9h-.793a4.56,4.56,0,0,1-3.173-1.19,4.164,4.164,0,0,1-1.388-2.974V33.7h5.354Zm18.837,7.535a4.164,4.164,0,0,1-1.388,2.974,4.56,4.56,0,0,1-3.173,1.19h-.793V45.593h5.354Zm-12.492-7.535h-5.354V33.7h5.354ZM158.226,32.7h-5.354V27.747h5.354Zm18.837,11.9h-5.354V39.644h5.354Zm-6.345-5.948h-5.354V33.7h5.354Zm-12.492-11.9h-5.354v-.793a4.164,4.164,0,0,1,1.388-2.974,4.56,4.56,0,0,1,3.173-1.19h.793Zm18.837,11.9h-5.354V33.7h.793a4.56,4.56,0,0,1,3.173,1.19,4.164,4.164,0,0,1,1.388,2.974Zm-12.492-11.9h-5.354V21.6h5.354Zm6.345,0h-5.552V21.6h5.354Zm6.345,0h-5.552V21.6h5.354ZM129.871,50.55h-5.354V45.593h5.354Zm0-5.948h-5.354V39.644h5.354Zm0-5.948h-5.354V33.7h5.354Zm0-5.948h-5.354V27.747h5.354Zm0-5.948h-5.354V21.6h5.354Zm18.837,11.9h-5.354V33.7h5.354Zm-12.492-11.9h-5.354V21.6h5.354ZM148.708,32.7h-5.354V27.747h5.354Zm-6.345-5.948h-5.354V21.6h5.354Zm6.345,0h-5.354V21.6h.793a4.561,4.561,0,0,1,3.173,1.19,4.164,4.164,0,0,1,1.388,2.974ZM101.517,50.55h-.793a4.56,4.56,0,0,1-3.173-1.19,4.164,4.164,0,0,1-1.388-2.974v-.793h5.354Zm6.345,0h-5.354V45.593h5.354ZM101.517,44.6H96.163V39.644h5.354Zm12.492,5.948h-5.354V45.593h5.354Zm-12.492-11.9H96.163V33.7h5.354Zm18.837,11.9H115V45.593h5.354ZM101.517,32.7H96.163V27.747h5.354Zm18.837,11.9H115V39.644h5.354ZM101.517,26.756H96.163V21.6h5.354Zm18.837,11.9H115V33.7h5.354Zm0-5.948H115V27.747h5.354Zm0-5.948H115V21.6h5.354ZM73.162,50.55h-.793A4.56,4.56,0,0,1,69.2,49.36a4.164,4.164,0,0,1-1.388-2.974v-.793h5.354Zm6.345,0H74.154V45.593h5.354ZM73.162,44.6H67.809V39.644h5.354ZM85.654,50.55H80.3V45.593h5.354Zm-12.492-11.9H67.809V33.7h5.354ZM92,46.188a4.164,4.164,0,0,1-1.388,2.974,4.561,4.561,0,0,1-3.173,1.19h-.793V45.593H92ZM73.162,32.7H67.809V27.747h5.354ZM92,44.6H86.646V39.644H92ZM79.507,32.7H74.154V27.747h5.354Zm-6.345-5.948H67.809V21.6h5.354ZM85.654,32.7H80.3V27.747h5.354ZM92,32.7H86.646V27.747H92ZM44.808,50.55h-.793a4.561,4.561,0,0,1-3.173-1.19,4.164,4.164,0,0,1-1.388-2.974v-.793h5.354Zm6.345,0H45.8V45.593h5.354ZM44.808,44.6H39.454V39.644h5.354ZM57.3,50.55H51.946V45.593H57.3Zm-12.492-11.9H39.454V37.86a4.164,4.164,0,0,1,1.388-2.974,4.561,4.561,0,0,1,3.173-1.19h.793Zm18.837,7.535a4.164,4.164,0,0,1-1.388,2.974,4.56,4.56,0,0,1-3.173,1.19h-.793V45.593h5.354ZM51.153,38.653H45.8V33.7h5.354ZM63.645,44.6H58.291V39.644h5.354ZM57.3,38.653H51.946V33.7H57.3Zm-12.492-11.9H39.454V21.6h5.354Zm18.837,11.9H58.291V33.7h5.354Zm-12.492-11.9H45.8V21.6h5.354ZM63.645,32.7H58.291V27.747h5.354ZM57.3,26.756H51.946V21.6H57.3Zm6.345,0H58.291V21.6h.793a4.561,4.561,0,0,1,3.173,1.19,4.164,4.164,0,0,1,1.388,2.974ZM16.454,50.55H11.1V45.593h5.354Zm0-5.948H11.1V39.644h5.354Zm0-5.948H11.1V33.7h5.354ZM35.29,50.55H29.937V45.593H35.29ZM28.945,44.6h-.793a4.56,4.56,0,0,1-3.173-1.19,4.164,4.164,0,0,1-1.388-2.974v-.793h5.354ZM16.454,32.7H11.1V27.747h5.354Zm12.492,5.948H23.592V33.7h5.354ZM35.29,44.6H29.937V39.644H35.29ZM22.8,32.7H17.445V27.747H22.8Zm-6.345-5.948H11.1V21.6h5.354Zm18.837,11.9H29.937V33.7H35.29ZM22.8,26.756H17.445V21.6h.793a4.56,4.56,0,0,1,3.173,1.19A4.164,4.164,0,0,1,22.8,25.764ZM35.29,32.7H29.937V27.747H35.29Zm0-5.948H29.937V21.6H35.29Z" transform="translate(10.91 21.258)" fill="#545454"/><path d="M272.889,50.55H272.1a4.561,4.561,0,0,1-3.173-1.19,4.164,4.164,0,0,1-1.388-2.974v-.793h5.354Zm6.345,0H273.88V45.593h5.354ZM272.889,44.6h-5.354V39.644h5.354Zm12.492,5.948h-5.155V45.593h5.354Zm-12.492-11.9h-5.354V33.7h5.354Zm18.837,7.535a4.164,4.164,0,0,1-1.388,2.974,4.56,4.56,0,0,1-3.173,1.19h-.793V45.593h5.354ZM272.889,32.7h-5.354V27.747h5.354Zm18.837,11.9h-5.354V39.644h5.354ZM272.889,26.756h-5.354v-.793a4.164,4.164,0,0,1,1.388-2.974A4.561,4.561,0,0,1,272.1,21.8h.793Zm18.837,11.9h-5.354V33.7h5.354Zm-12.492-11.9H273.88V21.6h5.354ZM291.726,32.7h-5.354V27.747h5.354Zm-6.345-5.948h-5.155V21.6h5.354Zm6.345,0h-5.354V21.6h.793a4.56,4.56,0,0,1,3.173,1.19,4.164,4.164,0,0,1,1.388,2.974ZM263.371,50.55h-5.354V45.593h5.354Zm0-5.948h-5.354V39.644h5.354Zm0-5.948h-5.354V33.7h5.354Zm0-5.948h-5.354V27.747h.793a4.56,4.56,0,0,1,3.173,1.19,4.164,4.164,0,0,1,1.388,2.974Zm0-5.948h-5.354V21.6h5.354ZM235.017,50.55h-.793a4.561,4.561,0,0,1-3.173-1.19,4.164,4.164,0,0,1-1.388-2.974v-.793h5.354Zm6.345,0h-5.354V45.593h5.354ZM235.017,44.6h-5.354V39.644h5.354Zm12.492,5.948h-5.354V45.593h5.354Zm-12.492-11.9h-5.354V33.7h5.354Zm18.837,7.535a4.164,4.164,0,0,1-1.388,2.974,4.56,4.56,0,0,1-3.172,1.19H248.5V45.593h5.354ZM235.017,32.7h-5.354v-.793a4.164,4.164,0,0,1,1.388-2.974,4.561,4.561,0,0,1,3.173-1.19h.793Zm18.837,11.9H248.5V39.644h5.354ZM241.362,32.7h-5.354V27.747h5.354Zm12.492,5.948H248.5V33.7h5.354ZM247.509,32.7h-5.354V27.747h5.354Zm6.345,0H248.5V27.747h5.354Zm0-5.948H248.5V21.6h5.354ZM206.662,50.55h-.793a4.561,4.561,0,0,1-3.173-1.19,4.164,4.164,0,0,1-1.388-2.974v-.793h5.354Zm6.345,0h-5.354V45.593h5.354ZM206.662,44.6h-5.354V39.644h5.354Zm12.492,5.948H213.8V45.593h5.354Zm-12.492-11.9h-5.354V33.7h5.354ZM225.5,50.55h-5.354V45.593H225.5ZM206.662,32.7h-5.354V27.747h5.354ZM225.5,44.6h-5.354V39.644H225.5ZM206.662,26.756h-5.354V21.6h5.354Zm18.837,11.9h-5.354V33.7H225.5Zm0-5.948h-5.354V27.747H225.5Zm0-5.948h-5.354V21.6H225.5ZM178.308,50.55h-.793a4.561,4.561,0,0,1-3.173-1.19,4.164,4.164,0,0,1-1.388-2.974v-.793h5.354Zm6.345,0H179.3V45.593h5.354ZM178.308,44.6h-5.354V39.644h5.354ZM190.8,50.55h-5.354V45.593H190.8Zm-12.492-11.9h-5.354V33.7h5.354Zm18.837,7.535a4.164,4.164,0,0,1-1.388,2.974,4.56,4.56,0,0,1-3.172,1.19h-.793V45.593h5.354ZM178.308,32.7h-5.354V27.747h5.354Zm18.837,11.9h-5.354V39.644h5.354ZM184.653,32.7H179.3V27.747h5.354Zm-6.345-5.948h-5.354V21.6h5.354ZM190.8,32.7h-5.354V27.747H190.8Zm6.345,0h-5.354V27.747h5.354ZM149.954,50.55H144.6V45.593h5.354Zm6.345,0h-5.354V45.593H156.3Zm6.345,0H157.29V45.593h5.354Zm-12.492-11.9h-.793a4.56,4.56,0,0,1-3.173-1.19,4.164,4.164,0,0,1-1.388-2.974V33.7h5.354Zm18.837,7.535a4.164,4.164,0,0,1-1.388,2.974,4.56,4.56,0,0,1-3.173,1.19h-.793V45.593h5.354ZM156.5,38.653h-5.354V33.7H156.5ZM150.152,32.7H144.8V27.747h5.354Zm18.837,11.9h-5.354V39.644h5.354Zm-6.345-5.948H157.29V33.7h5.354Zm-12.492-11.9H144.8v-.793a4.164,4.164,0,0,1,1.388-2.974,4.561,4.561,0,0,1,3.173-1.19h.793Zm18.837,11.9h-5.354V33.7h.793a4.56,4.56,0,0,1,3.173,1.19,4.164,4.164,0,0,1,1.388,2.974ZM156.5,26.756h-5.354V21.6H156.5Zm6.345,0h-5.354V21.6h5.354Zm6.345,0h-5.354V21.6h5.354Z" transform="translate(142.117 21.258)" fill="#d21113"/><rect width="6.94" height="6.523" transform="translate(237.146 3.4)" fill="#3d3d3c"/><rect width="6.94" height="6.523" transform="translate(237.146 11.926)" fill="#3d3d3c"/><rect width="6.94" height="6.523" transform="translate(237.146 20.651)" fill="#3d3d3c"/><rect width="6.94" height="6.523" transform="translate(237.146 29.177)" fill="#3d3d3c"/><rect width="6.94" height="6.523" transform="translate(246.267 3.4)" fill="#3d3d3c"/><rect width="6.94" height="6.523" transform="translate(246.267 11.926)" fill="#3d3d3c"/><rect width="6.94" height="6.523" transform="translate(246.267 20.651)" fill="#3d3d3c"/><rect width="6.94" height="6.523" transform="translate(246.267 29.177)" fill="#3d3d3c"/><rect width="6.94" height="6.523" transform="translate(255.388 3.4)" fill="#d21113"/><rect width="6.94" height="6.523" transform="translate(255.388 11.926)" fill="#d21113"/><rect width="6.94" height="6.523" transform="translate(255.388 20.651)" fill="#d21113"/><rect width="6.94" height="6.523" transform="translate(255.388 29.177)" fill="#3d3d3c"/><rect width="6.94" height="6.523" transform="translate(264.311 3.4)" fill="#d21113"/><rect width="6.94" height="6.523" transform="translate(264.311 11.926)" fill="#d21113"/><rect width="6.94" height="6.523" transform="translate(264.311 20.651)" fill="#d21113"/><rect width="6.94" height="6.523" transform="translate(264.311 29.177)" fill="#3d3d3c"/><rect width="6.94" height="6.523" transform="translate(273.432 3.4)" fill="#d21113"/><rect width="6.94" height="6.523" transform="translate(273.432 11.926)" fill="#d21113"/><rect width="6.94" height="6.523" transform="translate(273.432 20.651)" fill="#d21113"/><rect width="6.94" height="6.523" transform="translate(273.432 29.177)" fill="#3d3d3c"/><rect width="6.94" height="6.523" transform="translate(282.355 3.4)" fill="#3d3d3c"/><rect width="6.94" height="6.523" transform="translate(282.355 11.926)" fill="#3d3d3c"/><rect width="6.94" height="6.523" transform="translate(282.355 20.651)" fill="#3d3d3c"/><rect width="6.94" height="6.523" transform="translate(282.355 29.177)" fill="#3d3d3c"/><rect width="6.94" height="6.523" transform="translate(291.476 3.4)" fill="#3d3d3c"/><rect width="6.94" height="6.523" transform="translate(291.476 11.926)" fill="#3d3d3c"/><rect width="6.94" height="6.523" transform="translate(291.476 20.651)" fill="#3d3d3c"/><rect width="6.94" height="6.523" transform="translate(291.476 29.177)" fill="#3d3d3c"/><rect width="6.94" height="6.523" transform="translate(300.597 3.4)" fill="#3d3d3c"/><rect width="6.94" height="6.523" transform="translate(300.597 11.926)" fill="#d21113"/><rect width="6.94" height="6.523" transform="translate(300.597 20.651)" fill="#d21113"/><rect width="6.94" height="6.523" transform="translate(300.597 29.177)" fill="#d21113"/><rect width="6.94" height="6.523" transform="translate(309.52 3.4)" fill="#3d3d3c"/><rect width="6.94" height="6.523" transform="translate(309.52 11.926)" fill="#d21113"/><rect width="6.94" height="6.523" transform="translate(309.52 20.651)" fill="#d21113"/><rect width="6.94" height="6.523" transform="translate(309.52 29.177)" fill="#d21113"/><rect width="6.94" height="6.523" transform="translate(318.641 3.4)" fill="#3d3d3c"/><rect width="6.94" height="6.523" transform="translate(318.641 11.926)" fill="#d21113"/><rect width="6.94" height="6.523" transform="translate(318.641 20.651)" fill="#d21113"/><rect width="6.94" height="6.523" transform="translate(318.641 29.177)" fill="#d21113"/><rect width="6.94" height="6.523" transform="translate(327.563 3.4)" fill="#3d3d3c"/><rect width="6.94" height="6.523" transform="translate(327.563 11.926)" fill="#3d3d3c"/><rect width="6.94" height="6.523" transform="translate(327.563 20.651)" fill="#3d3d3c"/><rect width="6.94" height="6.523" transform="translate(327.563 29.177)" fill="#3d3d3c"/><rect width="6.94" height="6.523" transform="translate(336.684 3.4)" fill="#3d3d3c"/><rect width="6.94" height="6.523" transform="translate(336.684 11.926)" fill="#3d3d3c"/><rect width="6.94" height="6.523" transform="translate(336.684 20.651)" fill="#3d3d3c"/><rect width="6.94" height="6.523" transform="translate(336.684 29.177)" fill="#3d3d3c"/><rect width="6.94" height="6.523" transform="translate(345.607 3.4)" fill="#d21113"/><rect width="6.94" height="6.523" transform="translate(345.607 11.926)" fill="#d21113"/><rect width="6.94" height="6.523" transform="translate(345.607 20.651)" fill="#d21113"/><rect width="6.94" height="6.523" transform="translate(345.607 29.177)" fill="#3d3d3c"/><rect width="6.94" height="6.523" transform="translate(354.728 3.4)" fill="#d21113"/><rect width="6.94" height="6.523" transform="translate(354.728 11.926)" fill="#d21113"/><rect width="6.94" height="6.523" transform="translate(354.728 20.651)" fill="#d21113"/><rect width="6.94" height="6.523" transform="translate(354.728 29.177)" fill="#3d3d3c"/><rect width="6.94" height="6.523" transform="translate(363.849 3.4)" fill="#d21113"/><rect width="6.94" height="6.523" transform="translate(363.849 11.926)" fill="#d21113"/><rect width="6.94" height="6.523" transform="translate(363.849 20.651)" fill="#d21113"/><rect width="6.94" height="6.523" transform="translate(363.849 29.177)" fill="#3d3d3c"/><rect width="6.94" height="6.523" transform="translate(372.772 3.4)" fill="#3d3d3c"/><rect width="6.94" height="6.523" transform="translate(372.772 11.926)" fill="#3d3d3c"/><rect width="6.94" height="6.523" transform="translate(372.772 20.651)" fill="#3d3d3c"/><rect width="6.94" height="6.523" transform="translate(372.772 29.177)" fill="#3d3d3c"/><rect width="6.94" height="6.523" transform="translate(381.893 3.4)" fill="#3d3d3c"/><rect width="6.94" height="6.523" transform="translate(381.893 11.926)" fill="#3d3d3c"/><rect width="6.94" height="6.523" transform="translate(381.893 20.651)" fill="#3d3d3c"/><rect width="6.94" height="6.523" transform="translate(381.893 29.177)" fill="#3d3d3c"/><rect width="6.94" height="6.523" transform="translate(390.815 3.4)" fill="#3d3d3c"/><rect width="6.94" height="6.523" transform="translate(390.815 11.926)" fill="#d21113"/><rect width="6.94" height="6.523" transform="translate(390.815 20.651)" fill="#d21113"/><rect width="6.94" height="6.523" transform="translate(390.815 29.177)" fill="#d21113"/><rect width="6.94" height="6.523" transform="translate(399.936 3.4)" fill="#3d3d3c"/><rect width="6.94" height="6.523" transform="translate(399.936 11.926)" fill="#d21113"/><rect width="6.94" height="6.523" transform="translate(399.936 20.651)" fill="#d21113"/><rect width="6.94" height="6.523" transform="translate(399.936 29.177)" fill="#d21113"/><rect width="6.94" height="6.523" transform="translate(409.057 3.4)" fill="#3d3d3c"/><rect width="6.94" height="6.523" transform="translate(409.057 11.926)" fill="#d21113"/><rect width="6.94" height="6.523" transform="translate(409.057 20.651)" fill="#d21113"/><rect width="6.94" height="6.523" transform="translate(409.057 29.177)" fill="#d21113"/><rect width="6.94" height="6.523" transform="translate(417.98 3.4)" fill="#3d3d3c"/><rect width="6.94" height="6.523" transform="translate(417.98 11.926)" fill="#3d3d3c"/><rect width="6.94" height="6.523" transform="translate(417.98 20.651)" fill="#3d3d3c"/><rect width="6.94" height="6.523" transform="translate(417.98 29.177)" fill="#3d3d3c"/><rect width="6.94" height="6.523" transform="translate(427.101 3.4)" fill="#3d3d3c"/><rect width="6.94" height="6.523" transform="translate(427.101 11.926)" fill="#3d3d3c"/><rect width="6.94" height="6.523" transform="translate(427.101 20.651)" fill="#3d3d3c"/><rect width="6.94" height="6.523" transform="translate(427.101 29.177)" fill="#3d3d3c"/></g></g></svg>