<svg xmlns="http://www.w3.org/2000/svg" xmlns:xlink="http://www.w3.org/1999/xlink" width="303.377" height="77.446" viewBox="0 0 303.377 77.446"><defs><clipPath id="a"><rect width="303.377" height="77.446" fill="none"/></clipPath></defs><g transform="translate(151.688 38.723)"><g transform="translate(-151.688 -38.723)"><g clip-path="url(#a)"><path d="M37.027,74.155h-.176a37.289,37.289,0,1,1,.176,0Zm0-71.61a34.577,34.577,0,1,0,.175,0Z" transform="translate(0.006 0)" fill="#97001e"/><path d="M69.758,57.945,57.911,33.9,45.8,57.77Z" transform="translate(-5.607 -4.15)" fill="#97001e"/><path d="M35.27,57.758,23.423,33.8,11.4,57.67Z" transform="translate(-1.396 -4.138)" fill="#97001e"/><path d="M28.8,20.8,40.647,44.845,52.67,20.976Z" transform="translate(-3.526 -2.546)" fill="#97001e"/><text transform="translate(85.037 72.044)" fill="#040512" font-size="10" font-family="Roboto-Bold, Roboto" font-weight="700"><tspan x="0" y="0">Strategisches Marketing für Unternehmen</tspan></text><path d="M334.589,38.513c-1.053-1.755-3.072-3.159-4.651-3.159a7.547,7.547,0,0,0,3.949-3.335,10.268,10.268,0,0,0,1.229-5.178,8.776,8.776,0,0,0-2.808-7.021c-1.843-1.58-4.827-2.545-8.776-2.545H311.158V21.4h3.861V52.291h-3.247l-12.9-25.8L285.884,52.2h-7.372l.176-30.891h3.861V17.1H270.176v4.212h3.949l-.176,30.8H270v4.212h18.956L298.784,37.2l9.653,19.219h14.655c4.388,0,7.986-1.141,10.092-3.159s3.159-4.914,3.247-8.512a12.374,12.374,0,0,0-1.843-6.406M319.583,21.4h3.6c2.018,0,4.476.351,5.616,1.492s1.58,2.282,1.58,4.476c0,4.476-2.633,6.319-6.845,6.231H319.5Zm10.092,29.135c-1.4,1.141-3.159,1.755-6.055,1.667H319.5V37.9h4.212c2.282,0,4.651.527,5.967,1.667a6.845,6.845,0,0,1,1.931,5.353c-.088,2.9-.527,4.476-1.931,5.616" transform="translate(-33.055 -2.094)" fill="#040512"/><path d="M308.439,60.139,301.857,46.8,295.1,60.051Z" transform="translate(-36.128 -5.73)" fill="#97001e"/></g><text transform="translate(83.633 52.141)" fill="#040512" font-size="49" font-family="RobotoSlab-Light, Roboto Slab" font-weight="300"><tspan x="0" y="0">Media</tspan></text><rect width="303.377" height="77.446" fill="none"/></g></g></svg>