<?xml version="1.0" encoding="utf-8"?>
<!-- Generator: Adobe Illustrator 23.1.1, SVG Export Plug-In . SVG Version: 6.00 Build 0)  -->
<svg version="1.1" id="Ebene_1" xmlns="http://www.w3.org/2000/svg" xmlns:xlink="http://www.w3.org/1999/xlink" x="0px" y="0px"
	 viewBox="0 0 56 56" style="enable-background:new 0 0 56 56;" xml:space="preserve">
<style type="text/css">
	.st0{fill:#004494;}
	.st1{fill:none;stroke:#FFFFFF;}
	.st2{enable-background:new    ;}
	.st3{fill:#FFFFFF;}
</style>
<g transform="translate(-2777 -1111)">
	<g transform="translate(2777 1111)">
		<circle class="st0" cx="28" cy="28" r="28"/>
		<circle class="st1" cx="28" cy="28" r="27.5"/>
	</g>
	<g class="st2">
		<path class="st3" d="M2816.2,1142.7c0,0.2-0.1,0.4-0.2,0.5l-1.2,1.2c-0.2,0.2-0.3,0.2-0.5,0.2s-0.4-0.1-0.5-0.2l-9.2-9.2l-9.2,9.2
			c-0.2,0.2-0.3,0.2-0.5,0.2s-0.4-0.1-0.5-0.2l-1.2-1.2c-0.2-0.2-0.2-0.3-0.2-0.5s0.1-0.4,0.2-0.5l10.9-10.9
			c0.2-0.2,0.3-0.2,0.5-0.2s0.4,0.1,0.5,0.2l10.9,10.9C2816.1,1142.4,2816.2,1142.5,2816.2,1142.7z"/>
	</g>
</g>
</svg>
